<?xml version="1.0" standalone="no"?>
<!DOCTYPE svg PUBLIC "-//W3C//DTD SVG 1.1//EN" "http://www.w3.org/Graphics/SVG/1.1/DTD/svg11.dtd">
<svg xmlns="http://www.w3.org/2000/svg">
<defs >
<font id="BodoniModa" horiz-adv-x="1125" ><font-face
    font-family="Bodoni Moda 11pt"
    units-per-em="2000"
    panose-1="0 0 0 0 0 0 0 0 0 0"
    ascent="2250"
    descent="-800"
    alphabetic="0" />
<glyph unicode=" " horiz-adv-x="500" />
<glyph unicode="!" horiz-adv-x="637" d="M318 416Q336 506 352 600T380 790T401 978T415 1156T420 1318Q420 1374 431 1418T471 1489T548 1516Q601 1516 634 1478T656 1378Q644 1314 618 1226T557 1034T486 823T416 611T358 416H318ZM258 -20Q225 -20 199 -5T157
38T141 98Q141 131 156 158T198 200T258 216Q291 216 318 201T360 158T376 98Q376 65 361 38T318 -4T258 -20Z" />
<glyph unicode="&quot;" horiz-adv-x="739" d="M609 977Q627 1044 635 1092T643 1180T636 1262T622 1361Q621 1372 620 1380T619 1398Q619 1457 653 1488T731 1520Q774 1520 801 1491T828 1418Q828 1409 827 1399T822 1378Q808 1322 788 1280T743 1196T695 1104T647
977H609ZM269 977Q287 1044 295 1092T303 1180T296 1262T282 1361Q281 1372 280 1380T279 1398Q279 1457 313 1488T391 1520Q434 1520 461 1491T488 1418Q488 1409 487 1399T482 1378Q468 1322 448 1280T403 1196T355 1104T307 977H269Z" />
<glyph unicode="#" horiz-adv-x="1259" d="M731 -12L1081 1508L1122 1510L772 -10L731 -12ZM132 483V525H1212V483H132ZM332 -10L683 1510H722L373 -10H332ZM232 1004V1047H1312V1004H232Z" />
<glyph unicode="$" horiz-adv-x="1109" d="M540 -29Q416 -29 325 2T176 82T90 186T61 290Q61 359 97 406T200 454Q246 454 287 421T328 322Q328 282 309 253T258 207T193 191Q144 191 104 214T63 290H101Q101 246 126 197T204 103T339 32T535 5Q641 5 711 50T816
173T851 350Q851 438 818 493T731 585T611 650T481 709T361 787T273 906T240 1090Q240 1180 279 1258T386 1395T538 1487T714 1520Q822 1520 917 1477T1071 1362T1130 1210Q1130 1141 1093 1094T990 1046Q944 1046 904 1079T863 1178Q863 1238 903 1273T995 1309Q1027
1309 1057 1293T1108 1253T1128 1210H1090Q1090 1280 1039 1342T903 1444T717 1483Q621 1483 553 1448T447 1351T410 1210Q410 1128 443 1074T532 982T653 910T786 838T907 747T995 615T1029 420Q1029 315 993 232T890 91T735 2T540 -29ZM276 -160L688 1660H728L316
-160H276ZM459 -160L871 1660H911L499 -160H459Z" />
<glyph unicode="%" horiz-adv-x="2000" d="M387 0L1737 1500H1790L438 0H387ZM550 641Q457 641 390 672T287 770T250 939Q250 1062 287 1167T390 1352T543 1475T730 1520Q823 1520 890 1488T993 1390T1029 1221Q1029 1098 992 993T890 808T737 685T550 641ZM550
679Q587 679 622 703T688 771T745 870T790 992T819 1125T830 1260Q830 1360 806 1420T730 1481Q693 1481 658 1457T592 1389T535 1290T490 1168T461 1035T450 900Q450 800 474 740T550 679ZM1460 -20Q1367 -20 1300 12T1197 110T1160 279Q1160 402 1197 507T1300
692T1454 815T1641 859Q1734 859 1801 828T1903 730T1939 561Q1939 438 1902 333T1800 148T1647 25T1460 -20ZM1460 19Q1497 19 1532 42T1598 106T1655 202T1700 319T1729 449T1740 582Q1740 649 1730 703T1697 789T1641 821Q1604 821 1569 797T1502 729T1445 630T1399
508T1370 375T1359 240Q1359 140 1384 80T1460 19Z" />
<glyph unicode="&amp;" horiz-adv-x="1591" d="M1100 -20Q991 -20 926 29T822 182L527 939Q502 1002 490 1058T477 1166Q477 1266 536 1346T699 1473T938 1520Q1003 1520 1064 1504T1173 1456T1250 1378T1279 1271Q1279 1195 1238 1133T1128 1020T972 926T793
844L778 880Q882 923 949 982T1049 1111T1082 1256Q1082 1318 1065 1369T1012 1452T918 1484Q843 1484 792 1449T713 1359T686 1240Q686 1188 704 1117T764 939L1063 161Q1075 126 1090 98T1129 53T1194 37Q1248 37 1294 72T1365 152L1398 141Q1370 75 1295 28T1100
-20ZM479 -20Q336 -20 238 22T90 140T40 320Q40 438 84 513T205 638T380 726T585 807L600 775Q502 731 426 669T305 526T260 339Q260 291 271 238T311 137T389 60T518 30Q670 30 817 81T1093 214T1320 393T1475 581T1532 742H1570Q1570 717 1550 699T1499 670T1432
660Q1392 660 1362 676T1314 721T1296 784Q1296 815 1311 840T1355 882T1420 898Q1468 898 1502 878T1554 823T1572 742Q1572 658 1512 557T1346 354T1101 168T803 32T479 -20Z" />
<glyph unicode="&apos;" horiz-adv-x="399" d="M269 977Q287 1044 295 1092T303 1180T296 1262T282 1361Q281 1372 280 1380T279 1398Q279 1457 313 1488T391 1520Q434 1520 461 1491T488 1418Q488 1409 487 1399T482 1378Q468 1322 448 1280T403 1196T355 1104T307
977H269Z" />
<glyph unicode="(" horiz-adv-x="723" d="M546 -340Q433 -290 347 -189T213 55T164 370Q164 546 209 707T334 1010T517 1266T735 1467T966 1600L984 1565Q907 1525 831 1452T683 1282T551 1069T445 830T374 578T348 330Q348 194 361 97T401 -70T469 -196T565 -304L546
-340Z" />
<glyph unicode=")" horiz-adv-x="723" d="M-103 -340L-121 -305Q-44 -265 32 -192T180 -22T312 191T418 430T489 682T515 930Q515 1066 502 1163T462 1330T394 1456T298 1564L317 1600Q430 1550 516 1449T650 1206T699 890Q699 714 654 553T529 250T346 -6T128
-207T-103 -340Z" />
<glyph unicode="*" horiz-adv-x="1269" d="M765 1022L744 1055Q815 1096 863 1132T949 1201T1021 1268T1100 1336Q1132 1358 1167 1369T1234 1374T1286 1330Q1304 1298 1297 1267T1263 1209T1198 1166Q1145 1145 1097 1135T1000 1114T893 1083T765 1022ZM408 744Q376
722 341 711T274 706T223 750Q205 782 212 813T246 871T311 914Q363 935 411 945T508 965T614 995T742 1056L763 1023Q692 982 644 946T559 878T487 812T408 744ZM668 496Q633 496 610 517T579 573T584 654Q600 710 621 752T664 835T704 924T734 1040H774Q759 957
758 907T761 821T773 748T779 654Q779 607 766 572T728 516T668 496ZM743 1023Q672 1064 630 1080T559 1101T497 1114T412 1143Q373 1160 347 1188T314 1249T324 1314Q343 1349 375 1360T443 1364T514 1334Q549 1306 567 1280T598 1227T627 1173T675 1117T764 1054L743
1023ZM998 752Q963 780 944 806T912 857T881 908T832 962T743 1024L764 1055Q835 1014 877 998T948 977T1010 966T1096 938Q1135 921 1161 893T1195 832T1184 766Q1165 732 1134 723T1066 722T998 752ZM734 1040Q749 1123 750 1173T747 1259T735 1332T729 1426Q729
1473 742 1508T780 1564T840 1584Q875 1584 898 1564T929 1507T924 1426Q908 1370 887 1328T844 1245T804 1156T774 1040H734Z" />
<glyph unicode="+" horiz-adv-x="1059" d="M311 561V982H748V561H311ZM319 553V990H740V553H319Z" />
<glyph unicode="," horiz-adv-x="429" d="M-74 -312V-272Q-15 -272 44 -241T151 -158T225 -43T246 84H284Q284 53 264 30T211 -7T145 -20Q81 -20 51 13T20 92Q20 125 37 153T85 199T154 216Q193 216 223 200T271 149T288 62Q288 -5 257 -71T175 -192T59 -279T-74 -312Z" />
<glyph unicode="-" horiz-adv-x="719" d="M166 531V569H646V531H166Z" />
<glyph unicode="." horiz-adv-x="399" d="M141 -20Q108 -20 81 -4T37 39T20 100Q20 133 36 160T80 204T141 221Q174 221 201 205T244 161T260 100Q260 67 244 40T201 -4T141 -20Z" />
<glyph unicode="/" horiz-adv-x="1039" d="M-61 -300L1189 1561H1240L-9 -300H-61Z" />
<glyph unicode="0" horiz-adv-x="1239" d="M544 -20Q416 -20 327 42T190 207T143 428Q143 601 182 762T293 1061T458 1302T660 1462T884 1520Q1012 1520 1102 1458T1239 1293T1286 1072Q1286 899 1246 738T1135 439T970 198T768 38T544 -20ZM544 16Q613 16 675
57T793 170T894 335T976 532T1038 744T1076 950T1090 1132Q1090 1197 1082 1259T1053 1372T990 1453T884 1484Q815 1484 753 1443T635 1330T534 1165T452 968T390 756T352 550T338 368Q338 304 346 241T375 128T438 47T544 16Z" />
<glyph unicode="1" horiz-adv-x="869" d="M181 0L511 1461H285V1500H711L371 0H181ZM-31 0V39H598V0H-31Z" />
<glyph unicode="2" horiz-adv-x="1099" d="M-21 0L4 130L541 573Q607 627 676 697T804 847T899 1016T935 1195Q935 1277 908 1338T826 1434T690 1469Q612 1469 540 1438T410 1351T319 1224T285 1069H249Q249 1094 267 1115T315 1150T378 1164Q422 1164 458 1135T495
1052Q495 992 459 958T370 924Q318 924 283 961T247 1069Q247 1157 283 1238T386 1382T545 1483T750 1520Q871 1520 956 1479T1087 1367T1132 1206Q1132 1146 1108 1088T1043 976T955 874T861 787T780 719L123 180H887L918 330H958L888 0H-21Z" />
<glyph unicode="3" horiz-adv-x="1041" d="M412 -20Q270 -20 180 22T48 131T5 270Q5 332 38 365T125 398Q171 398 201 370T232 287Q232 255 216 232T174 195T119 182Q90 182 65 194T23 225T7 270H45Q45 194 90 138T209 50T372 19Q467 19 538 53T658 147T730 282T755
440Q755 496 745 557T701 672T604 759T431 793V818Q593 818 696 790T856 712T935 592T957 440Q957 339 912 255T790 109T616 14T412 -20ZM431 807V832Q550 832 631 875T762 985T833 1122T855 1247Q855 1316 832 1367T757 1446T622 1475Q570 1475 518 1457T422 1407T351
1330T324 1233H286Q286 1263 304 1283T348 1315T400 1326Q429 1326 455 1314T497 1279T513 1220Q513 1180 495 1156T451 1120T400 1109Q369 1109 343 1123T300 1164T284 1233Q284 1287 314 1338T397 1429T519 1494T667 1518Q750 1518 821 1504T945 1458T1027 1370T1057
1232Q1057 1157 1024 1082T917 945T724 845T431 807Z" />
<glyph unicode="4" horiz-adv-x="1189" d="M634 0L933 1414L120 450H1144V411H38L955 1500H1144L824 0H634ZM464 0V39H994V0H464Z" />
<glyph unicode="5" horiz-adv-x="1000" d="M130 754L390 1500H1058L1080 1609H1119L1060 1320H369L170 754H130ZM362 -20Q260 -20 180 19T52 122T5 258Q5 299 20 326T62 368T118 382Q143 382 170 371T215 335T234 270Q234 235 219 211T178 173T123 160Q93 160
67 174T24 210T7 258H45Q45 208 71 165T140 89T235 39T342 21Q419 21 481 54T591 145T671 272T719 417T735 561Q735 655 711 730T638 850T515 895Q450 895 390 878T280 830T195 754H156Q192 811 248 852T378 916T544 939Q670 939 759 899T896 775T944 561Q944 449
896 345T766 158T580 28T362 -20Z" />
<glyph unicode="6" horiz-adv-x="1119" d="M468 -20Q356 -20 269 28T131 177T80 439Q80 567 132 714T279 1003T502 1263T785 1450T1110 1520V1484Q997 1484 893 1438T697 1311T530 1129T400 913T316 686T286 471L280 340Q280 246 301 174T365 60T474 19Q539 19
597 55T703 152T786 288T840 445T860 600Q860 756 821 839T698 923Q619 923 554 884T437 781T351 640T298 485T280 340H246Q246 399 259 468T300 610T369 748T465 866T589 949T742 980Q802 980 859 960T961 895T1033 778T1060 600Q1060 488 1011 378T877 178T687
34T468 -20Z" />
<glyph unicode="7" horiz-adv-x="1009" d="M418 -20Q367 -20 329 19T291 132Q291 193 324 272T410 441T526 622T647 796Q693 862 758 952T893 1136T1024 1311H295L262 1160H223L295 1500H1214Q1214 1500 1178 1452T1084 1325T956 1152T819 965T698 795Q631 701
569 613T466 452T425 334Q425 298 444 278T488 241T532 196T551 116Q551 61 518 21T418 -20Z" />
<glyph unicode="8" horiz-adv-x="1099" d="M490 -20Q279 -20 170 65T61 300Q61 420 117 527T286 703T570 771Q782 771 891 691T1000 460Q1000 340 944 230T774 50T490 -20ZM490 19Q549 19 598 42T684 107T748 202T787 316T800 439Q800 523 776 590T700 697T570
737Q511 737 462 714T376 650T312 556T273 443T260 320Q260 236 284 168T360 60T490 19ZM609 759Q488 759 406 798T282 904T240 1050Q240 1140 276 1224T379 1375T534 1481T730 1520Q851 1520 933 1471T1058 1345T1100 1189Q1100 1099 1064 1021T961 884T805 792T609
759ZM609 793Q663 793 708 813T788 869T849 954T887 1060T900 1180Q900 1244 887 1313T836 1432T730 1481Q677 1481 632 1458T551 1393T491 1298T453 1184T439 1061Q439 997 453 936T503 834T609 793Z" />
<glyph unicode="9" horiz-adv-x="1119" d="M67 -20V16Q179 16 283 62T479 189T646 371T776 587T860 814T890 1029L897 1160Q897 1254 876 1326T811 1440T703 1481Q637 1481 579 1445T473 1348T390 1212T336 1055T317 900Q317 744 356 661T479 577Q558 577 623
616T739 719T825 860T878 1015T897 1160H930Q930 1102 917 1032T876 890T807 752T711 634T587 551T435 520Q374 520 317 540T215 605T144 722T117 900Q117 1013 166 1123T299 1322T490 1466T709 1520Q820 1520 908 1472T1046 1323T1097 1061Q1097 933 1045 786T898
497T674 237T391 50T67 -20Z" />
<glyph unicode=":" horiz-adv-x="395" d="M326 820Q293 820 266 836T222 879T205 940Q205 973 221 1000T265 1044T326 1061Q359 1061 386 1045T429 1001T445 940Q445 907 429 880T386 836T326 820ZM141 -20Q108 -20 81 -4T37 39T20 100Q20 133 36 160T80 204T141
221Q174 221 201 205T244 161T260 100Q260 67 244 40T201 -4T141 -20Z" />
<glyph unicode=";" horiz-adv-x="429" d="M336 820Q303 820 276 836T232 879T215 940Q215 973 231 1000T275 1044T336 1061Q369 1061 396 1045T439 1001T455 940Q455 907 439 880T396 836T336 820ZM-74 -312V-272Q-15 -272 44 -241T151 -158T225 -43T246 84H284Q284
53 264 30T211 -7T145 -20Q81 -20 51 13T20 92Q20 125 37 153T85 199T154 216Q193 216 223 200T271 149T288 62Q288 -5 257 -71T175 -192T59 -279T-74 -312Z" />
<glyph unicode="&lt;" horiz-adv-x="1119" d="M120 759V802L1000 1213V1170L120 759ZM1000 338L120 748V791L1000 380V338Z" />
<glyph unicode="=" horiz-adv-x="1119" d="M204 902V940H1084V902H204ZM204 601V639H1084V601H204Z" />
<glyph unicode="&gt;" horiz-adv-x="1119" d="M549 544L120 790L571 998L1000 751L549 544ZM571 552L120 760L549 1005L1000 799L571 552Z" />
<glyph unicode="?" horiz-adv-x="1099" d="M494 418L557 708Q664 739 763 805T925 967T988 1180Q988 1264 972 1332T904 1441T742 1481Q666 1481 601 1455T486 1386T408 1289T380 1182H342Q342 1212 358 1234T400 1267T454 1279Q484 1279 510 1267T552 1230T568
1170Q568 1130 550 1106T506 1070T454 1059Q424 1059 398 1072T356 1113T340 1182Q340 1244 372 1304T462 1412T593 1490T752 1520Q854 1520 935 1498T1073 1433T1160 1326T1190 1180Q1190 1096 1155 1022T1060 888T922 782T759 711T588 679L534 418H494ZM439 -20Q406
-20 379 -4T335 39T318 100Q318 133 334 160T378 204T439 221Q472 221 499 205T542 161T558 100Q558 67 542 40T499 -4T439 -20Z" />
<glyph unicode="@" horiz-adv-x="2019" d="M838 -428Q701 -428 571 -383T337 -239T171 24T109 422Q109 610 162 782T313 1100T543 1353T835 1520T1170 1580Q1360 1580 1499 1511T1730 1328T1865 1077T1910 802Q1910 682 1876 564T1774 350T1609 195T1382 137Q1315
137 1272 163T1207 231T1180 324T1186 420L1330 1040H1504L1347 410Q1343 395 1336 368T1326 309T1328 248T1358 201T1427 182Q1525 182 1606 234T1747 374T1838 573T1871 802Q1871 934 1830 1064T1702 1303T1484 1476T1169 1541Q1001 1541 849 1483T569 1321T347
1077T202 770T150 422Q150 197 208 42T364 -208T586 -346T838 -389Q998 -389 1125 -358T1355 -264T1544 -103L1570 -128Q1444 -275 1264 -351T838 -428ZM878 141Q794 141 729 180T627 291T590 463Q590 567 629 672T736 865T888 1006T1062 1059Q1125 1059 1166 1030T1230
953T1262 844T1272 723Q1272 618 1239 515T1149 327T1023 192T878 141ZM893 184Q959 184 1021 231T1132 356T1211 531T1240 727Q1240 759 1237 806T1219 900T1173 978T1084 1010Q1025 1010 969 952T868 802T797 602T771 396Q771 342 783 294T822 215T893 184Z"
/>
<glyph unicode="A" horiz-adv-x="1449" d="M58 0L940 1529H980L1170 0H960L831 1268L103 0H58ZM-90 0V39H350V0H-90ZM730 0V39H1311V0H730ZM364 470V509H1029V470H364Z" />
<glyph unicode="B" horiz-adv-x="1250" d="M-90 0V39H99L430 1461H260V1500H820Q1062 1500 1161 1430T1260 1210Q1260 1130 1223 1058T1121 926T967 827T777 773Q895 764 978 730T1106 633T1150 480Q1150 368 1102 279T968 128T771 33T529 0H-90ZM289 39H529Q620
39 694 77T820 183T901 336T930 520Q930 609 900 659T814 729T682 750H417L426 790H670Q727 790 794 817T922 898T1022 1035T1061 1230Q1061 1299 1037 1351T959 1432T820 1461H621L289 39Z" />
<glyph unicode="C" horiz-adv-x="1342" d="M620 -20Q467 -20 352 44T173 228T109 510Q109 715 179 897T370 1220T648 1440T980 1520Q1098 1520 1190 1472T1330 1329T1359 1090H1338Q1351 1191 1328 1263T1256 1383T1140 1452T1000 1475Q893 1475 802 1428T637
1297T505 1107T409 878T350 632T330 391Q330 289 364 206T468 74T641 25Q775 25 884 75T1072 213T1198 410H1221Q1181 287 1094 190T885 36T620 -20ZM1093 0L1040 141Q1073 178 1108 219T1171 316L1198 410H1237L1127 0H1093ZM1338 1090L1353 1173Q1349 1223 1339
1266T1305 1355L1439 1500H1473L1377 1090H1338Z" />
<glyph unicode="D" horiz-adv-x="1389" d="M-70 0V39H500Q607 39 698 85T863 212T995 395T1091 614T1150 847T1170 1070Q1170 1139 1153 1208T1098 1334T997 1426T840 1461H250V1500H840Q1003 1500 1127 1441T1321 1267T1391 990Q1391 785 1321 606T1128 290T843
77T500 0H-70ZM109 0L450 1500H641L300 0H109Z" />
<glyph unicode="E" horiz-adv-x="1164" d="M80 0L428 1500H618L270 0H80ZM-90 0V39H600Q737 39 826 89T968 231T1052 450H1091L987 0H-90ZM718 557Q732 624 717 668T662 734T566 756H424V795H566Q623 795 674 815T763 877T816 986H855L757 557H718ZM1180 1090Q1205
1197 1194 1281T1124 1413T948 1461H248V1500H1315L1219 1090H1180Z" />
<glyph unicode="F" horiz-adv-x="1124" d="M80 0L428 1500H618L270 0H80ZM-90 0V39H471V0H-90ZM732 536Q746 603 730 645T664 707T527 727H418V766H527Q613 766 676 783T777 839T828 945H867L771 536H732ZM1160 1090Q1185 1197 1174 1281T1104 1413T928 1461H248V1500H1295L1199
1090H1160Z" />
<glyph unicode="G" horiz-adv-x="1472" d="M620 -20Q467 -20 352 44T173 228T109 510Q109 674 154 824T281 1101T472 1322T711 1468T980 1520Q1098 1520 1190 1472T1330 1329T1359 1090H1338Q1351 1192 1327 1264T1254 1382T1138 1450T1000 1472Q872 1472 767
1405T580 1225T443 971T359 680T330 391Q330 289 354 205T438 70T601 19Q694 19 764 48T884 118T963 196T1004 250L1087 565H1295L1234 330Q1200 283 1146 223T1016 108T841 16T620 -20ZM910 550V589H1450V550H910ZM1338 1090L1354 1164Q1353 1213 1343 1262T1305
1355L1439 1500H1473L1377 1090H1338Z" />
<glyph unicode="H" horiz-adv-x="1439" d="M414 720V759H1134V720H414ZM790 1461H611L289 39H460V0H-80V39H99L421 1461H250V1500H790V1461ZM1630 1500V1461H1451L1129 39H1300V0H760V39H939L1261 1461H1090V1500H1630Z" />
<glyph unicode="I" horiz-adv-x="699" d="M141 0L480 1500H670L330 0H141ZM-80 0V39H561V0H-80ZM250 1461V1500H891V1461H250Z" />
<glyph unicode="J" horiz-adv-x="856" d="M178 -61Q101 -61 47 -28T-35 55T-64 155Q-64 197 -48 226T-6 270T50 285Q75 285 101 273T145 235T163 168Q163 130 147 106T106 70T50 58Q25 58 -1 70T-44 103T-62 155H-24Q-23 123 -9 92T32 36T94 -5T173 -21Q235 -21
273 24T340 158T399 380L659 1500H848L588 340Q558 287 518 219T428 87T315 -19T178 -61ZM394 1461V1500H1048V1461H394Z" />
<glyph unicode="K" horiz-adv-x="1343" d="M249 434L1246 1498H1302L305 434H249ZM-80 0V39H460V0H-80ZM594 0V39H1214V0H594ZM90 0L430 1500H620L279 0H90ZM831 0L580 770L724 919L1049 0H831ZM250 1461V1500H790V1461H250ZM984 1461V1500H1464V1461H984Z" />
<glyph unicode="L" horiz-adv-x="1140" d="M80 0L428 1500H618L270 0H80ZM-90 0V39H590Q747 39 834 89T967 231T1041 450H1081L977 0H-90ZM248 1461V1500H798V1461H248Z" />
<glyph unicode="M" horiz-adv-x="1703" d="M659 -20L423 1500H615L816 261L1504 1500H1548L703 -20H659ZM-50 0V39H281V0H-50ZM86 0L396 1461H250V1500H444L127 0H86ZM1074 0V39H1564V0H1074ZM1214 0L1534 1500H1844V1461H1716L1404 0H1214Z" />
<glyph unicode="N" horiz-adv-x="1463" d="M1063 -20L467 1500H697L1152 314L1423 1500H1464L1118 -20H1063ZM-70 0V39H394V0H-70ZM119 0L448 1461H250V1500H497L160 0H119ZM1183 1461V1500H1654V1461H1183Z" />
<glyph unicode="O" horiz-adv-x="1429" d="M600 -20Q370 -20 240 123T109 510Q109 674 154 824T278 1101T463 1322T690 1468T939 1520Q1082 1520 1193 1456T1367 1272T1430 990Q1430 785 1364 603T1183 280T917 60T600 -20ZM600 16Q697 16 780 64T931 196T1051
389T1138 620T1192 868T1210 1109Q1210 1171 1197 1236T1153 1358T1070 1449T939 1484Q847 1484 767 1436T618 1304T497 1111T406 880T350 632T330 391Q330 289 354 204T437 67T600 16Z" />
<glyph unicode="P" horiz-adv-x="1209" d="M338 652L347 691H620Q722 691 801 734T936 849T1021 1005T1050 1172Q1050 1216 1041 1266T1007 1360T937 1433T820 1461H611L279 39H471V0H-80V39H89L421 1461H250V1500H820Q951 1500 1052 1463T1212 1349T1270 1152Q1270
1002 1192 890T967 715T620 652H338Z" />
<glyph unicode="Q" horiz-adv-x="1429" d="M600 -20Q370 -20 240 123T109 510Q109 674 154 824T278 1101T463 1322T690 1468T939 1520Q1082 1520 1193 1456T1367 1272T1430 990Q1430 785 1364 603T1183 280T917 60T600 -20ZM850 -500Q657 -500 562 -447T454 -284T490
0Q545 -9 605 -9T721 0Q683 -136 676 -225T688 -366T749 -439T850 -461V-500ZM600 16Q697 16 780 64T931 196T1051 389T1138 620T1192 868T1210 1109Q1210 1171 1197 1236T1153 1358T1070 1449T939 1484Q847 1484 767 1436T618 1304T497 1111T406 880T350 632T330
391Q330 289 354 204T437 67T600 16Z" />
<glyph unicode="R" horiz-adv-x="1429" d="M120 0L471 1500H660L311 0H120ZM-80 0V39H529V0H-80ZM1120 -10Q1033 -10 986 22T920 108T899 230T900 370T900 509T875 631T803 718T660 750H430V771H700Q847 771 931 732T1055 627T1103 483T1109 327T1104 184T1119
79T1189 39Q1220 39 1243 46T1288 63L1300 23Q1246 3 1210 -3T1120 -10ZM430 766V790H721Q802 790 867 815T982 884T1064 983T1113 1100T1130 1221Q1130 1257 1124 1299T1097 1377T1034 1437T920 1461H250V1500H920Q1051 1500 1147 1471T1297 1376T1350 1200Q1350
1060 1277 964T1063 817T721 766H430Z" />
<glyph unicode="S" horiz-adv-x="1111" d="M466 -29Q349 -29 269 2T139 90T66 224T39 391H78Q80 309 99 240T162 119T277 40T455 11Q561 11 650 51T792 164T846 336Q846 426 813 486T726 588T606 662T476 728T357 805T269 912T236 1070Q236 1183 282 1267T402
1407T557 1492T710 1520Q838 1520 927 1472T1062 1332T1109 1109H1070Q1070 1228 1031 1310T913 1435T720 1478Q642 1478 566 1443T441 1346T391 1199Q391 1118 424 1066T512 977T632 911T764 846T884 761T972 633T1006 439Q1006 335 963 249T845 100T672 5T466
-29ZM-57 -20L39 391H78V283Q88 243 99 209T124 142L-23 -20H-57ZM1070 1109L1082 1196Q1073 1242 1060 1284T1023 1372L1165 1520H1199L1109 1109H1070Z" />
<glyph unicode="T" horiz-adv-x="1277" d="M423 0L771 1500H961L613 0H423ZM213 0V39H843V0H213ZM150 1050L254 1500H1478L1374 1050H1334Q1364 1177 1364 1269T1317 1411T1151 1461H561Q473 1461 412 1433T310 1350T240 1221T189 1050H150Z" />
<glyph unicode="U" horiz-adv-x="1384" d="M618 -29Q455 -29 348 25T200 187T198 460L438 1500H628L389 480Q366 386 366 303T393 154T482 52T643 15Q777 15 872 64T1030 213T1127 460L1366 1500H1407L1166 460Q1130 303 1062 194T885 28T618 -29ZM248 1461V1500H818V1461H248ZM1168
1461V1500H1575V1461H1168Z" />
<glyph unicode="V" horiz-adv-x="1456" d="M570 -29L380 1500H590L717 236L1444 1500H1489L611 -29H570ZM240 1461V1500H820V1461H240ZM1200 1461V1500H1657V1461H1200Z" />
<glyph unicode="W" horiz-adv-x="1925" d="M1066 -20L955 1500H1144L1233 273L1933 1500H1977L1111 -20H1066ZM536 -20L424 1500H613L703 273L1023 834H1066L580 -20H536ZM240 1461V1500H1667V1461H240ZM1104 834L1484 1500H1527L1148 834H1104ZM1763 1461V1500H2143V1461H1763Z"
/>
<glyph unicode="X" horiz-adv-x="1449" d="M969 0L450 1500H672L1199 0H969ZM-100 0V39H380V0H-100ZM93 0L768 834H819L145 0H93ZM777 0V39H1337V0H777ZM311 1461V1500H870V1461H311ZM752 754L1346 1496H1395L805 754H752ZM1130 1461V1500H1570V1461H1130Z" />
<glyph unicode="Y" horiz-adv-x="1449" d="M510 0L680 754L380 1500H600L864 778L1455 1496H1504L861 714L700 0H510ZM330 0V39H900V0H330ZM240 1461V1500H820V1461H240ZM1230 1461V1500H1650V1461H1230Z" />
<glyph unicode="Z" horiz-adv-x="1097" d="M-100 0V39L988 1461H628Q491 1461 411 1431T288 1334T220 1160H181L261 1500H1229V1461L141 39H561Q697 39 777 72T902 179T976 380H1015L927 0H-100Z" />
<glyph unicode="[" horiz-adv-x="669" d="M-20 -300L400 1561H880V1520H570L170 -261H460V-300H-20Z" />
<glyph unicode="\" horiz-adv-x="1039" d="M777 -300L359 1561H402L820 -300H777Z" />
<glyph unicode="]" horiz-adv-x="649" d="M-191 -301V-260H119L519 1521H229V1560H709L289 -301H-191Z" />
<glyph unicode="^" horiz-adv-x="1089" d="M446 1234L420 1260L760 1540H891L1109 1260L1086 1236L816 1445L446 1234Z" />
<glyph unicode="_" horiz-adv-x="1119" d="M-10 -319V-281H1130V-319H-10Z" />
<glyph unicode="`" horiz-adv-x="1000" d="M946 1681L684 1817Q668 1827 659 1843T648 1879T657 1915Q664 1927 676 1936T704 1948T736 1946T769 1926L970 1707L946 1681Z" />
<glyph unicode="a" horiz-adv-x="1097" d="M318 -20Q188 -20 127 67T65 305Q65 420 108 532T224 737T381 884T552 940Q626 940 667 900T726 794T743 651Q743 582 729 506T687 354T621 212T536 92T434 10T318 -20ZM348 38Q404 38 457 75T556 176T637 319T691 483T711
648Q711 721 697 774T653 858T574 888Q522 888 471 845T374 731T293 574T238 398T217 230Q217 135 252 87T348 38ZM753 -20Q683 -20 650 18T617 116Q617 133 618 146T621 170L650 331L701 486L730 668L791 920H960L743 104Q739 88 739 72Q739 54 748 42T780 30Q824
30 862 60T937 153T1014 319L1052 306Q1009 191 966 119T871 14T753 -20Z" />
<glyph unicode="b" horiz-adv-x="990" d="M356 -20Q275 -20 218 18T123 117T65 240L393 1461H235V1500H562L209 189Q209 116 242 70T350 24Q419 24 480 64T591 173T677 325T732 500T752 674Q752 785 713 838T612 891Q551 891 501 857T410 762T337 624T281 460H246Q279
570 319 658T406 809T510 905T631 938Q754 938 832 838T910 575Q910 458 866 351T745 161T568 29T356 -20Z" />
<glyph unicode="c" horiz-adv-x="885" d="M362 -20Q218 -20 142 69T65 300Q65 416 108 529T226 736T396 884T598 940Q680 940 738 909T828 833T860 750Q860 697 831 667T757 636Q720 636 689 660T658 736Q658 777 686 806T752 836Q781 836 805 829T843 804T858
750H820Q820 781 792 814T717 871T611 894Q543 894 483 849T373 729T289 564T234 382T214 213Q214 128 256 80T376 31Q456 31 522 63T643 151T738 280L774 259Q735 184 675 121T537 19T362 -20Z" />
<glyph unicode="d" horiz-adv-x="1097" d="M753 -20Q683 -20 650 18T617 116Q617 124 617 139T621 170L650 331L715 496L718 617L944 1461H779V1500H1115L743 104Q739 89 739 72Q739 56 748 43T780 30Q824 30 862 59T937 153T1014 319L1052 306Q1009 191 966 119T872
14T753 -20ZM319 -20Q189 -20 127 67T65 305Q65 420 108 532T224 737T381 884T552 940Q625 940 666 901T725 796T743 651Q743 582 729 506T687 354T622 212T537 92T435 10T319 -20ZM348 38Q404 38 457 75T556 176T637 318T691 483T711 648Q711 721 697 774T653
858T574 888Q522 888 471 845T374 731T293 573T238 397T218 230Q218 135 251 87T348 38Z" />
<glyph unicode="e" horiz-adv-x="923" d="M356 -20Q260 -20 194 20T94 133T60 300Q60 415 102 528T220 735T398 884T621 940Q729 940 788 887T848 754Q848 672 792 608T643 498T437 426T210 392V426Q296 433 370 449T505 493T609 562T676 657T700 782Q700 829
679 864T607 900Q550 900 499 868T403 781T322 655T261 508T222 354T208 210Q208 110 254 71T371 31Q450 31 517 62T638 150T733 279L768 258Q729 182 670 119T532 18T356 -20Z" />
<glyph unicode="f" horiz-adv-x="695" d="M-178 -520Q-248 -520 -295 -495T-366 -430T-390 -350Q-390 -296 -360 -268T-286 -239Q-244 -239 -213 -263T-182 -338Q-182 -371 -198 -393T-238 -427T-286 -439Q-311 -439 -334 -429T-372 -399T-388 -350H-349Q-349
-375 -331 -406T-273 -460T-174 -483Q-121 -483 -82 -455T-14 -373T38 -246T82 -83L337 1023Q358 1116 395 1204T485 1364T609 1477T768 1520Q837 1520 884 1495T955 1430T979 1350Q979 1298 950 1269T876 1239Q834 1239 803 1263T771 1338Q771 1369 786 1391T825
1426T876 1439Q891 1439 909 1433T942 1416T967 1389T977 1350H939Q939 1376 921 1407T864 1460T768 1483Q717 1483 679 1454T611 1372T559 1244T514 1080L253 -23Q231 -115 195 -203T106 -363T-18 -477T-178 -520ZM118 881V920H744V881H118Z" />
<glyph unicode="g" horiz-adv-x="1180" d="M305 -520Q157 -520 72 -485T-49 -393T-85 -271Q-85 -210 -49 -158T41 -67T150 -6T243 16H301Q221 2 166 -39T83 -140T54 -269Q54 -363 112 -420T287 -477Q404 -477 505 -451T683 -376T801 -264T844 -125Q844 -66 806
-42T705 -18Q686 -18 646 -18T555 -18T455 -18T369 -18T318 -18Q228 -18 164 6T66 73T31 173Q31 221 57 262T129 335T239 384T377 402L375 376Q281 376 230 332T179 241Q179 194 210 169T288 134T379 124Q414 124 465 124T564 125T641 126Q754 126 830 82T906 -84Q906
-193 853 -275T711 -411T516 -493T305 -520ZM523 320Q442 320 378 353T277 447T240 593Q240 689 293 767T434 892T623 939Q704 939 768 904T869 806T906 657Q906 562 853 486T712 365T523 320ZM503 359Q545 359 584 382T657 446T716 537T756 642T771 746Q771 812
740 856T643 900Q601 900 562 877T489 813T430 722T390 618T375 514Q375 448 406 404T503 359ZM1039 930Q1090 930 1122 900T1155 819Q1155 778 1130 749T1063 719Q1026 719 997 742T968 808Q968 837 984 858T1027 888Q1048 883 1066 871T1099 838Q1090 864 1068
877T1021 890Q980 890 943 865T873 795T812 693L784 709Q837 820 900 875T1039 930Z" />
<glyph unicode="h" horiz-adv-x="1116" d="M35 0L426 1461H270V1500H600L200 0H35ZM760 -20Q690 -20 647 12T604 102Q604 118 608 138T620 184L746 616Q770 698 778 757T771 849T704 881Q656 881 595 830T471 692T355 495T270 266H247Q268 350 305 443T392 624T500
783T622 896T751 939Q838 939 881 898T932 788T916 639L763 105Q761 98 760 89T758 71Q758 31 797 31Q864 31 918 98T1033 319L1071 306Q1028 191 985 119T888 14T760 -20Z" />
<glyph unicode="i" horiz-adv-x="577" d="M224 -20Q146 -20 110 14T73 106Q73 121 75 137T82 170L286 881H140V920H453L223 104Q221 96 220 88T219 72Q219 55 227 43T259 30Q304 30 342 59T416 153T494 319L532 306Q489 191 446 119T350 14T224 -20ZM466 1269Q433
1269 406 1285T363 1329T347 1390Q347 1423 363 1450T406 1494T466 1510Q499 1510 526 1494T570 1451T587 1390Q587 1357 571 1330T527 1286T466 1269Z" />
<glyph unicode="j" horiz-adv-x="510" d="M-224 -520Q-270 -520 -315 -504T-390 -455T-420 -377Q-420 -341 -406 -317T-368 -280T-316 -268Q-271 -268 -242 -294T-212 -366Q-212 -404 -237 -434T-312 -465Q-355 -465 -386 -440T-418 -377H-380Q-380 -404 -358
-428T-299 -467T-219 -483Q-149 -483 -103 -433T-25 -293T37 -87L275 881H142V920H448L206 -23Q182 -117 143 -206T49 -366T-73 -478T-224 -520ZM446 1279Q397 1279 362 1315T326 1400Q326 1450 361 1485T446 1520Q496 1520 530 1485T565 1400Q565 1351 531 1315T446
1279Z" />
<glyph unicode="k" horiz-adv-x="1011" d="M35 0L427 1461H251V1500H600L188 0H35ZM642 -20Q571 -20 537 16T502 116Q502 128 503 143T509 170L535 279Q543 316 555 363T570 455T553 528T478 558Q406 558 370 528T318 456T292 380H269Q291 472 325 517T400 576T487
590Q543 590 585 570T654 509T686 405T679 252L647 90Q646 84 646 78T645 68Q645 33 686 33Q728 33 770 65T854 162T937 329L975 315Q910 146 832 63T642 -20ZM405 447Q379 447 354 455T315 475L330 513Q342 500 360 493T405 485Q445 485 477 519T538 607T592 723Q636
825 692 882T831 939Q873 939 905 921T956 870T975 793Q975 742 945 713T877 684Q839 684 811 708T783 778Q783 817 809 842T871 867Q889 867 913 859T955 835T973 793H934Q934 825 923 849T888 888T829 903Q768 903 720 856T633 715Q605 649 573 588T499 487T405
447Z" />
<glyph unicode="l" horiz-adv-x="585" d="M209 -20Q131 -20 93 15T55 106Q55 126 57 141T64 170L412 1461H224V1500H581L205 104Q203 95 202 86T201 69Q201 30 241 30Q285 30 323 60T399 153T476 319L514 306Q471 191 428 119T332 14T209 -20Z" />
<glyph unicode="m" horiz-adv-x="1643" d="M1265 -20Q1186 -20 1152 15T1118 108Q1118 130 1122 149T1131 184L1257 616Q1295 746 1294 816T1231 886Q1173 886 1111 833T991 691T885 492T809 266H780Q809 380 856 498T967 717T1105 878T1264 939Q1354 939 1396
898T1442 788T1423 639L1269 106Q1266 97 1265 87T1263 68Q1263 52 1273 42T1303 31Q1346 31 1384 60T1460 152T1538 319L1576 306Q1533 191 1490 119T1393 14T1265 -20ZM55 0L265 881H135V920H435L215 0H55ZM585 0L735 616Q767 748 769 817T709 886Q651 886 588
833T464 691T356 492T278 266H249Q278 380 327 498T442 717T586 878T749 939Q831 939 870 898T915 788T901 639L744 0H585Z" />
<glyph unicode="n" horiz-adv-x="1142" d="M756 -20Q678 -20 639 10T600 104Q600 125 604 145T613 179L751 616Q775 693 783 753T775 847T705 881Q658 881 597 829T474 689T360 491T276 266H248Q270 349 307 441T395 622T503 782T625 896T751 939Q838 939 883
898T937 788T922 639L760 105Q757 96 756 87T754 69Q754 54 762 43T792 31Q862 31 915 98T1030 319L1067 306Q1024 191 981 119T884 14T756 -20ZM42 0L273 881H140V920H447L207 0H42Z" />
<glyph unicode="o" horiz-adv-x="973" d="M362 -20Q211 -20 138 72T65 299Q65 430 108 546T227 750T399 889T601 940Q753 940 825 848T898 620Q898 489 855 373T736 169T565 30T362 -20ZM352 19Q407 19 458 51T554 139T637 267T702 421T745 584T760 740Q760 814
724 857T611 900Q556 900 505 868T409 780T326 652T261 498T218 335T203 179Q203 105 239 62T352 19Z" />
<glyph unicode="p" horiz-adv-x="1110" d="M-44 -500L326 881H192V920H470L391 583L346 426L334 324L116 -500H-44ZM-189 -500V-461H290V-500H-189ZM476 32Q528 32 579 75T676 189T757 347T812 525T833 695Q833 783 801 832T703 882Q647 882 594 845T495 744T414
602T360 437T340 272Q340 163 372 98T476 32ZM499 -20Q425 -20 384 20T325 126T308 269Q308 338 322 414T364 566T429 708T514 828T616 910T732 940Q862 940 924 853T986 615Q986 500 942 388T827 183T669 36T499 -20Z" />
<glyph unicode="q" horiz-adv-x="1005" d="M413 -500L635 318Q651 360 676 412T713 510L711 604L790 900L957 940L570 -500H413ZM258 -500V-461H748V-500H258ZM308 -20Q178 -20 117 67T55 305Q55 420 98 532T214 737T371 884T542 940Q615 940 656 901T715 796T733
651Q733 582 719 506T677 354T611 212T526 92T424 10T308 -20ZM338 37Q394 37 447 74T546 175T627 317T681 482T701 648Q701 721 687 774T643 858T564 888Q512 888 461 845T364 730T283 571T228 393T207 225Q207 137 240 87T338 37Z" />
<glyph unicode="r" horiz-adv-x="832" d="M45 0L264 881H111V920H423L203 0H45ZM252 305Q270 386 298 474T363 644T445 793T543 899T654 939Q715 939 749 906T784 823Q784 777 758 745T686 713Q643 713 615 739T586 807Q586 847 613 875T687 903Q729 903 755 882T782
823H743Q743 855 721 878T656 901Q601 901 552 863T461 760T383 617T320 457T275 305H252Z" />
<glyph unicode="s" horiz-adv-x="824" d="M366 -20Q282 -20 207 6T83 84T35 210Q35 254 61 286T135 319Q176 319 202 291T228 218Q228 172 199 148T132 124Q106 124 85 133T50 161T37 210H91Q91 148 127 106T226 42T365 20Q421 20 476 38T569 95T606 192Q606 247
574 288T490 362T382 427T273 493T190 575T157 684Q157 758 200 815T319 905T493 938Q581 938 642 911T736 843T769 760Q769 706 742 682T679 657Q642 657 614 680T585 753Q585 790 611 818T679 847Q711 847 739 823T767 760H720Q720 796 693 827T614 878T493 898Q442
898 393 883T312 835T280 751Q280 701 311 665T393 600T499 540T606 473T687 386T719 264Q719 175 667 112T534 14T366 -20Z" />
<glyph unicode="t" horiz-adv-x="652" d="M277 -20Q215 -20 176 -1T119 50T100 116Q100 132 105 161T118 220L362 1120H522L246 118Q243 107 240 94T237 67Q237 30 299 30Q341 30 381 50T458 109T530 205T595 338L633 326Q590 216 538 139T421 21T277 -20ZM107
880V920H647V880H107Z" />
<glyph unicode="u" horiz-adv-x="1141" d="M253 -20Q157 -20 113 21T65 132T81 282L234 881H102V920H413L251 305Q230 227 222 167T229 72T299 38Q346 38 410 90T539 231T659 429T743 654H773Q753 571 715 479T624 298T511 137T385 23T253 -20ZM765 -20Q687 -20
649 20T611 105Q611 117 613 135T620 170L810 920H979L759 105Q757 96 756 87T755 69Q755 31 792 31Q838 31 877 60T952 153T1030 319L1067 306Q1024 191 981 119T885 14T765 -20Z" />
<glyph unicode="v" horiz-adv-x="1013" d="M411 -20Q315 -20 262 14T194 112T200 262L333 816Q334 825 336 834T338 852Q338 868 328 878T299 888Q264 888 233 869T174 813T121 726T72 613L35 624Q64 699 94 757T159 856T237 918T333 939Q404 939 446 901T488
805Q488 783 485 765T479 736L372 278Q354 199 348 144T361 60T435 31Q495 31 557 78T676 203T779 376T852 571T879 758Q879 808 866 838T830 883T782 898V936Q814 936 841 923T884 884T900 824Q900 776 865 743T782 710Q730 710 700 741T670 824Q670 870 702 904T782
938Q820 938 851 919T900 859T918 758Q918 667 890 561T811 353T696 166T558 31T411 -20Z" />
<glyph unicode="w" horiz-adv-x="1434" d="M862 -20Q795 -20 749 -1T678 63T646 180T652 360L786 920H946L817 372Q802 309 788 248T774 137T797 57T883 27Q971 27 1041 83T1164 228T1252 420T1304 618T1321 778Q1321 829 1302 863T1236 898V936Q1273 936 1299
918T1338 873T1351 824Q1351 771 1317 741T1231 710Q1178 710 1146 740T1114 819Q1114 869 1147 903T1236 938Q1293 938 1328 893T1364 778Q1364 712 1347 612T1294 402T1199 197T1057 41T862 -20ZM340 -20Q244 -20 195 22T138 133T155 282L338 818Q341 827 343
837T345 855Q345 890 307 890Q253 890 213 858T139 761T66 601L28 614Q66 714 105 787T198 900T339 940Q417 940 456 910T495 829Q495 807 492 782T481 736L318 266Q278 148 294 91T373 33Q434 33 483 74T571 188T643 360T704 574H733Q710 482 685 395T627 233T555
101T461 12T340 -20Z" />
<glyph unicode="x" horiz-adv-x="1055" d="M703 -20Q626 -20 584 27T521 146Q502 210 476 303T419 496T362 685T314 827Q308 843 298 861T261 880Q235 880 207 857T150 789T98 676L62 693Q111 828 174 883T323 939Q400 939 438 892T496 773Q515 706 540 619T593
438T651 254T706 92Q712 76 726 60T766 44Q789 44 817 65T872 129T922 235L958 218Q908 83 841 32T703 -20ZM83 -20Q30 -20 -2 2T-50 55T-65 117Q-65 167 -36 199T47 232Q99 232 125 199T152 128Q152 102 141 79T107 42T47 27Q27 27 1 38T-44 69T-63 117H-25Q-25
78 5 52T92 26Q126 26 156 41T210 79T251 123Q278 156 304 194T365 292T456 447L495 428Q450 355 404 277T307 131T201 22T83 -20ZM539 473L500 493Q558 581 607 661T704 805T803 904T918 940Q967 940 998 920T1045 870T1060 811Q1060 761 1031 730T951 699Q897
699 872 733T847 805Q847 839 872 871T949 903Q969 903 994 890T1039 856T1058 811H1020Q1020 846 990 871T902 897Q869 897 839 881T785 841T744 797Q718 764 692 725T630 627T539 473Z" />
<glyph unicode="y" horiz-adv-x="1005" d="M87 -520Q20 -520 -29 -493T-104 -416T-131 -302Q-131 -269 -116 -239T-74 -189T-8 -170Q17 -170 43 -181T86 -215T104 -277Q104 -326 73 -356T3 -387Q-23 -387 -54 -378T-107 -351T-129 -302H-91Q-91 -359 -70 -399T-10
-460T86 -481Q159 -481 245 -427T422 -282T600 -77T765 156T902 390T995 592T1029 731Q1029 768 1018 807T980 872T912 899V937Q949 937 977 921T1022 880T1038 826Q1038 793 1021 767T976 727T914 712Q854 712 821 746T788 826Q788 872 822 905T912 939Q973 939
1007 905T1056 822T1070 732Q1070 676 1036 582T940 371T800 131T629 -109T444 -318T258 -465T87 -520ZM629 -103Q593 -40 558 43T491 219T430 405T377 582T333 731T299 833Q293 849 281 861T237 874Q197 874 155 830T73 677L35 693Q68 783 105 837T190 915T300
939Q385 939 425 891T486 771Q507 704 531 612T585 421T654 227T741 60Q726 38 714 19T689 -20T662 -59T629 -103Z" />
<glyph unicode="z" horiz-adv-x="877" d="M-60 9L362 441L850 910L425 477L-60 9ZM-35 -20L-61 10Q36 81 107 121T236 177T351 193Q391 193 422 179T480 146T537 113T601 99Q648 99 680 137T728 228T744 320H783Q780 298 764 281T725 253T677 242Q653 242 630
252T592 284T576 336Q576 384 607 409T676 434Q706 434 731 423T770 386T785 320Q785 283 767 226T714 113T628 18T512 -20Q466 -20 432 -5T365 31T297 67T211 83Q139 83 76 56T-35 -20ZM92 580L176 939Q229 909 285 892T395 868T495 861Q531 861 577 864T670 876T758
899T822 939L852 909Q791 864 732 828T615 766T502 726T394 712Q328 712 273 736T178 788L131 580H92Z" />
<glyph unicode="{" horiz-adv-x="543" d="M170 620V650Q200 660 240 681T310 736T340 822Q340 862 335 893T322 956T310 1033T305 1143Q305 1232 330 1308T410 1440T552 1529T764 1561V1520Q672 1520 611 1477T520 1365T490 1224Q490 1168 494 1126T503 1033T508
902Q508 840 477 791T395 707T285 649T170 620ZM344 -300Q219 -300 146 -278T42 -208T10 -80Q10 -10 36 56T101 182T178 297T243 397T270 482Q270 543 243 569T170 611V641Q244 631 291 608T361 544T384 439Q384 364 356 294T290 157T224 31T195 -84Q195 -126 206
-166T250 -234T344 -261V-300Z" />
<glyph unicode="|" horiz-adv-x="459" d="M13 -500L493 1561H531L50 -500H13Z" />
<glyph unicode="}" horiz-adv-x="543" d="M-80 -301V-260Q12 -260 73 -217T164 -105T194 36Q194 92 190 134T181 227T176 358Q176 420 207 469T289 553T399 611T514 640V610Q484 600 444 579T374 524T344 438Q344 398 349 367T362 304T374 227T379 117Q379 28
354 -48T274 -180T132 -269T-80 -301ZM514 619Q440 629 393 652T323 716T300 821Q300 896 328 966T394 1103T460 1229T489 1344Q489 1386 478 1426T434 1494T340 1521V1560Q465 1560 538 1538T642 1468T674 1340Q674 1270 648 1204T583 1078T506 963T441 863T414
778Q414 717 441 691T514 649V619Z" />
<glyph unicode="~" horiz-adv-x="1375" d="M998 686Q928 686 878 705T789 752T717 808T647 855T564 874Q478 874 420 834T331 686H291Q311 801 358 875T472 984T618 1020Q684 1020 728 1001T806 954T871 898T939 851T1032 832Q1133 832 1194 872T1285 1020H1324Q1304
905 1257 831T1144 722T998 686Z" />
<glyph unicode="&#xa0;" horiz-adv-x="500" />
<glyph unicode="&#xa1;" horiz-adv-x="637" d="M170 -476Q118 -476 84 -438T62 -338Q74 -274 100 -186T161 6T232 217T302 429T360 624H400Q382 534 366 440T338 250T317 62T303 -116T298 -278Q298 -334 287 -378T247 -449T170 -476ZM460 824Q427 824 401 839T358
882T342 942Q342 975 358 1002T400 1044T460 1060Q493 1060 519 1045T561 1002T577 942Q577 909 562 882T520 840T460 824Z" />
<glyph unicode="&#xa2;" horiz-adv-x="911" d="M362 -20Q218 -20 142 69T65 300Q65 416 108 529T226 736T396 884T598 940Q680 940 738 909T828 833T860 750Q860 697 831 667T757 636Q720 636 689 660T658 736Q658 777 686 806T752 836Q781 836 805 829T843 804T858
750H820Q820 781 792 814T717 871T611 894Q543 894 483 849T373 729T289 564T234 382T214 213Q214 128 256 80T376 31Q456 31 522 63T643 151T738 280L774 259Q735 184 675 121T537 19T362 -20ZM298 -170L638 1109H679L339 -170H298Z" />
<glyph unicode="&#xa3;" horiz-adv-x="1250" d="M64 -40Q53 43 89 113T185 247T308 370T414 491T458 622Q458 676 443 735T412 865T396 1020Q396 1133 440 1224T566 1382T760 1484T1008 1520Q1140 1520 1228 1472T1360 1349T1404 1191Q1404 1150 1387 1123T1343
1082T1286 1068Q1249 1068 1211 1094T1172 1180Q1172 1215 1188 1239T1231 1277T1286 1290Q1311 1290 1329 1276T1352 1245Q1351 1295 1317 1349T1211 1441T1027 1479Q923 1479 846 1442T719 1345T643 1221T618 1100Q618 1031 628 972T649 849T660 700Q660 619
629 556T546 441T433 347T312 262T202 177T126 80T103 -40H64ZM784 -61Q681 -61 609 -43T484 0T386 42T294 61Q233 61 184 33T104 -40H83Q106 16 137 59T210 132T305 177T424 193Q499 193 546 183T630 160T709 136T816 126Q888 126 956 139T1074 192T1145 314H1184Q1169
205 1130 133T1036 18T916 -42T784 -61ZM130 770V811H1029V770H130Z" />
<glyph unicode="&#xa4;" horiz-adv-x="1140" d="M385 310Q244 310 156 373T35 540T32 770Q61 895 141 999T338 1166T597 1229Q738 1229 826 1167T945 1000T948 770Q919 645 840 541T643 373T385 310ZM-97 270L-118 298L106 480L128 452L-97 270ZM846 270L707 452L742
480L881 299L846 270ZM395 354Q523 354 628 412T803 564T900 770Q926 881 899 975T794 1127T587 1185Q459 1185 354 1128T178 976T80 770Q55 659 82 565T189 412T395 354ZM239 1059L99 1241L135 1270L274 1088L239 1059ZM876 1060L854 1088L1077 1269L1099 1241L876
1060Z" />
<glyph unicode="&#xa5;" horiz-adv-x="1449" d="M510 0L680 754L380 1500H600L864 778L1455 1496H1504L861 714L700 0H510ZM330 0V39H900V0H330ZM265 322V360H1145V322H265ZM265 623V661H1145V623H265ZM240 1461V1500H820V1461H240ZM1230 1461V1500H1650V1461H1230Z" />
<glyph unicode="&#xa6;" horiz-adv-x="439" d="M6 -500L199 332H235L44 -500H6ZM310 818L482 1561H520L348 818H310Z" />
<glyph unicode="&#xa7;" horiz-adv-x="947" d="M370 -20Q282 -20 202 10T72 103T21 262Q21 324 61 375T162 426Q207 426 238 397T270 314Q270 266 234 235T146 204Q113 204 92 216T65 246Q67 171 108 121T219 46T370 20Q469 20 533 56T629 145T661 245Q661 303
624 339T527 399T400 446T274 498T177 572T139 689Q139 744 164 791T228 879T309 950T384 1000L423 990Q411 978 390 952T350 890T332 814Q332 749 366 712T453 651T566 607T679 555T766 469T800 324Q800 246 766 183T671 74T534 5T370 -20ZM647 508L607 522Q636
544 670 572T729 636T754 711Q754 767 720 801T633 859T520 908T407 966T320 1054T286 1195Q286 1273 319 1333T409 1435T533 1498T673 1520Q771 1520 840 1481T947 1380T984 1252Q984 1161 950 1121T863 1080Q818 1080 787 1108T756 1191Q756 1239 791 1270T870
1302Q898 1302 916 1290T941 1271Q940 1318 912 1366T824 1447T671 1480Q600 1480 542 1452T448 1375T412 1266Q412 1213 448 1179T542 1119T664 1068T785 1010T879 927T916 800Q916 742 889 698T820 619T732 558T647 508Z" />
<glyph unicode="&#xa8;" horiz-adv-x="1000" d="M967 1690Q927 1690 899 1718T870 1786Q870 1826 898 1854T967 1883Q1007 1883 1034 1855T1062 1786Q1062 1746 1035 1718T967 1690ZM647 1690Q607 1690 579 1718T550 1786Q550 1826 578 1854T647 1883Q687 1883
714 1855T742 1786Q742 1746 715 1718T647 1690Z" />
<glyph unicode="&#xa9;" horiz-adv-x="1739" d="M840 -20Q647 -20 496 57T257 275T170 609Q170 749 219 882T356 1131T558 1333T807 1470T1080 1520Q1273 1520 1424 1443T1663 1225T1750 891Q1750 751 1701 618T1564 369T1362 167T1113 30T840 -20ZM1120 300L1088
384Q1108 407 1129 431T1167 490L1183 546H1206L1140 300H1120ZM836 288Q698 288 614 373T530 606Q530 729 571 838T686 1032T853 1164T1052 1212Q1158 1212 1227 1148T1280 954H1267Q1277 1035 1250 1086T1173 1161T1064 1185Q987 1185 924 1145T812 1036T730
883T679 708T662 534Q662 473 682 424T744 345T848 315Q929 315 994 345T1107 427T1183 546H1196Q1172 472 1120 414T995 322T836 288ZM840 19Q973 19 1100 66T1337 198T1532 392T1663 629T1711 891Q1711 1071 1629 1203T1405 1408T1080 1481Q947 1481 820 1434T583
1302T388 1108T257 871T209 609Q209 427 290 295T514 91T840 19ZM1267 954L1276 1004Q1274 1034 1268 1059T1247 1113L1327 1200H1348L1290 954H1267Z" />
<glyph unicode="&#xaa;" horiz-adv-x="705" d="M643 952Q565 952 528 1004T491 1147Q491 1216 517 1283T586 1406T680 1495T783 1528Q828 1528 852 1504T887 1441T898 1354Q898 1305 886 1250T850 1142T796 1046T725 978T643 952ZM661 987Q702 987 741 1021T811
1110T860 1229T879 1353Q879 1418 860 1457T797 1497Q758 1497 720 1458T651 1358T601 1229T582 1102Q582 1045 603 1016T661 987ZM904 952Q862 952 842 975T822 1034Q822 1043 822 1051T825 1066L842 1162L873 1256L890 1365L927 1516H1028L898 1026Q895 1017
895 1007Q895 982 920 982Q946 982 969 1000T1014 1056T1061 1155L1083 1148Q1045 1044 1005 998T904 952Z" />
<glyph unicode="&#xab;" horiz-adv-x="1389" d="M1270 290L710 750V800L1490 1260L1510 1240L962 775L1291 310L1270 290ZM710 290L150 750V800L930 1260L951 1240L402 775L730 310L710 290Z" />
<glyph unicode="&#xac;" horiz-adv-x="971" d="M813 406V753H120V792H852V406H813Z" />
<glyph unicode="&#xad;" horiz-adv-x="919" d="M166 531V569H646V531H166Z" />
<glyph unicode="&#xae;" horiz-adv-x="1739" d="M840 -20Q647 -20 496 57T257 275T170 609Q170 749 219 882T356 1131T558 1333T807 1470T1080 1520Q1273 1520 1424 1443T1663 1225T1750 891Q1750 751 1701 618T1564 369T1362 167T1113 30T840 -20ZM468 296V320H834V296H468ZM588
296L798 1196H912L702 296H588ZM1188 290Q1128 290 1100 314T1063 380T1055 469T1056 566T1047 656T1006 721T912 746H774V759H936Q1039 759 1091 727T1162 645T1181 539T1179 433T1183 352T1229 320Q1248 320 1262 324T1289 334L1296 310Q1264 298 1242 294T1188
290ZM840 19Q973 19 1100 66T1337 198T1532 392T1663 629T1711 891Q1711 1071 1629 1203T1405 1408T1080 1481Q947 1481 820 1434T583 1302T388 1108T257 871T209 609Q209 427 290 295T514 91T840 19ZM774 756V770H948Q1009 770 1055 793T1132 854T1178 938T1194
1028Q1194 1058 1187 1091T1152 1148T1068 1172H666V1196H1068Q1147 1196 1205 1179T1294 1122T1326 1016Q1326 890 1228 823T948 756H774Z" />
<glyph unicode="&#xaf;" horiz-adv-x="1000" d="M551 1700V1739H1031V1700H551Z" />
<glyph unicode="&#xb0;" horiz-adv-x="639" d="M628 1120Q562 1120 508 1152T421 1239T389 1359Q389 1425 421 1480T507 1567T628 1600Q694 1600 748 1568T835 1480T868 1359Q868 1293 836 1239T749 1153T628 1120ZM628 1196Q698 1196 745 1242T792 1359Q792 1430
745 1477T628 1524Q558 1524 511 1477T464 1359Q464 1289 511 1243T628 1196Z" />
<glyph unicode="&#xb1;" horiz-adv-x="1059" d="M120 2V40H939V2H120ZM510 361V1180H549V361H510ZM120 753V791H939V753H120Z" />
<glyph unicode="&#xb2;" horiz-adv-x="939" d="M389 914L405 992L727 1258Q780 1301 834 1360T926 1489T963 1631Q963 1680 947 1717T897 1774T816 1795Q769 1795 726 1777T648 1725T593 1649T573 1556H551Q551 1578 575 1595T629 1612Q655 1612 677 1595T699
1545Q699 1509 678 1489T624 1468Q593 1468 572 1490T550 1556Q550 1626 588 1687T694 1787T852 1826Q925 1826 976 1802T1054 1735T1081 1638Q1081 1593 1059 1550T1002 1468T932 1398T870 1345L476 1022H934L953 1112H977L935 914H389Z" />
<glyph unicode="&#xb3;" horiz-adv-x="899" d="M577 902Q492 902 438 927T359 993T333 1076Q333 1113 353 1133T405 1153Q432 1153 450 1136T469 1086Q469 1058 449 1041T401 1023Q375 1023 355 1038T334 1076H357Q357 1031 384 997T455 945T553 926Q610 926 653
946T725 1002T768 1083T783 1178Q783 1222 771 1271T717 1355T589 1390V1405Q718 1405 786 1376T879 1296T904 1178Q904 1117 877 1067T804 979T700 922T577 902ZM589 1398V1413Q660 1413 709 1439T787 1505T830 1587T843 1662Q843 1724 811 1761T703 1799Q662
1799 621 1780T552 1729T525 1654H502Q502 1681 524 1695T570 1709Q596 1709 617 1693T638 1646Q638 1610 615 1595T570 1579Q542 1579 521 1598T500 1654Q500 1697 531 1736T615 1800T730 1825Q797 1825 850 1810T933 1757T964 1653Q964 1593 928 1535T810 1437T589
1398Z" />
<glyph unicode="&#xb4;" horiz-adv-x="1000" d="M671 1681L647 1707L848 1926Q863 1941 880 1946T912 1948T940 1936T960 1915Q969 1899 968 1880T958 1844T933 1817L671 1681Z" />
<glyph unicode="&#xb5;" horiz-adv-x="1141" d="M1030 319L1067 306Q1024 191 981 119T885 14T765 -20Q687 -20 649 20T611 105Q611 117 613 135T620 170L686 433Q649 351 600 271T494 125T376 20T253 -20Q190 -20 153 0T99 55T79 136L-17 -242Q-34 -309 -21 -358T29
-438T115 -477Q96 -464 84 -437T71 -377Q71 -324 110 -285T199 -246Q248 -246 285 -284T322 -380Q322 -438 282 -479T155 -520Q102 -520 57 -501T-20 -445T-62 -357T-56 -242L234 881H102V920H413L251 305Q230 227 222 167T230 72T299 38Q345 38 407 88T533 222T651
412T736 629L810 920H979L759 105Q757 96 756 87T755 69Q755 31 792 31Q838 31 877 60T952 153T1030 319Z" />
<glyph unicode="&#xb6;" horiz-adv-x="1212" d="M261 -300V-261H465L705 779H566Q479 779 407 796T281 848T199 932T169 1049Q169 1154 212 1237T333 1379T513 1469T732 1500H1252V1461H1059L662 -261H847V-300H261ZM504 -261H623L1019 1461H901L504 -261Z" />
<glyph unicode="&#xb7;" horiz-adv-x="395" d="M307 680Q274 680 247 696T203 739T186 800Q186 833 202 860T246 904T307 921Q340 921 367 905T410 861T426 800Q426 767 410 740T367 696T307 680Z" />
<glyph unicode="&#xb8;" horiz-adv-x="1000" d="M159 -509V-471Q246 -471 305 -434T365 -333Q365 -270 307 -249T151 -228L360 12H408L268 -148Q345 -150 399 -165T482 -214T511 -300Q511 -355 470 -403T350 -480T159 -509Z" />
<glyph unicode="&#xb9;" horiz-adv-x="1059" d="M584 912L782 1788H646V1812H902L698 912H584ZM456 912V936H834V912H456Z" />
<glyph unicode="&#xba;" horiz-adv-x="973" d="M665 950Q574 950 531 1005T487 1141Q487 1220 513 1289T584 1412T687 1496T809 1526Q900 1526 943 1471T987 1334Q987 1229 942 1142T824 1003T665 950ZM659 973Q699 973 735 1000T802 1074T855 1176T891 1292T904
1406Q904 1450 882 1476T815 1502Q775 1502 739 1475T672 1401T618 1299T583 1183T570 1069Q570 1025 592 999T659 973Z" />
<glyph unicode="&#xbb;" horiz-adv-x="1389" d="M660 290L639 310L1188 775L860 1240L880 1260L1440 800V750L660 290ZM100 290L80 310L628 775L299 1240L320 1260L880 800V750L100 290Z" />
<glyph unicode="&#xbc;" horiz-adv-x="1281" d="M-34 -200L1235 1300H1271L3 -200H-34ZM375 1612H631L432 736H563V712H185V736H318L511 1588H375V1612ZM1053 694H1167L1032 64H1167V40H1027L979 -182H1077V-206H759V-182H865L913 40H503L1053 694ZM1039 642L553
64H918L1039 642Z" />
<glyph unicode="&#xbd;" horiz-adv-x="1339" d="M-34 -200L1235 1300H1271L3 -200H-34ZM185 712V736H563V712H185ZM669 -202L685 -124L1007 142Q1060 185 1114 244T1206 373T1243 515Q1243 564 1227 601T1177 658T1096 679Q1049 679 1006 661T928 609T873 533T853
440H831Q831 462 855 479T909 496Q935 496 957 479T979 429Q979 393 958 373T904 352Q873 352 852 374T830 440Q830 510 868 571T974 671T1132 710Q1205 710 1256 686T1334 619T1361 522Q1361 477 1339 434T1282 352T1212 282T1150 229L756 -94H1214L1233 -4H1257L1215
-202H669ZM313 712L511 1588H375V1612H631L427 712H313Z" />
<glyph unicode="&#xbe;" horiz-adv-x="1401" d="M86 -200L1355 1300H1393L123 -200H86ZM879 -206V-182H1197V-206H879ZM981 -206L1160 642L672 64H1287V40H623L1173 694H1287L1095 -206H981ZM417 696Q332 696 278 721T199 787T173 870Q173 907 193 927T245 947Q272
947 290 930T309 880Q309 852 289 835T241 817Q215 817 195 832T174 870H197Q197 825 224 791T295 739T393 720Q450 720 493 740T565 796T608 877T623 972Q623 1016 611 1065T557 1149T429 1184V1199Q558 1199 626 1170T719 1090T744 972Q744 911 717 861T644 773T540
716T417 696ZM429 1192V1207Q500 1207 549 1233T627 1299T670 1381T683 1456Q683 1518 651 1555T543 1593Q502 1593 461 1574T392 1523T365 1448H342Q342 1475 364 1489T410 1503Q436 1503 457 1487T478 1440Q478 1404 455 1389T410 1373Q382 1373 361 1392T340
1448Q340 1491 371 1530T455 1594T570 1619Q637 1619 690 1604T773 1551T804 1447Q804 1387 768 1329T650 1231T429 1192Z" />
<glyph unicode="&#xbf;" horiz-adv-x="1099" d="M458 -480Q356 -480 275 -458T137 -393T50 -286T20 -140Q20 -56 55 18T150 152T288 258T451 329T622 361L676 622H716L653 332Q546 301 447 235T285 73T222 -140Q222 -224 238 -292T306 -401T468 -441Q544 -441
609 -415T724 -346T802 -249T830 -142H868Q868 -172 852 -193T811 -227T756 -239Q727 -239 701 -227T658 -190T642 -130Q642 -90 660 -66T704 -30T756 -19Q787 -19 812 -32T854 -73T870 -142Q870 -203 838 -263T748 -372T617 -450T458 -480ZM771 819Q738 819 711
835T668 879T652 940Q652 973 668 1000T711 1044T771 1060Q804 1060 831 1044T875 1001T892 940Q892 907 876 880T832 836T771 819Z" />
<glyph unicode="&#xc0;" horiz-adv-x="1449" d="M58 0L940 1529H980L1170 0H960L831 1268L103 0H58ZM-90 0V39H350V0H-90ZM730 0V39H1311V0H730ZM364 470V509H1029V470H364ZM1067 1681L805 1817Q789 1827 780 1843T769 1879T778 1915Q785 1927 797 1936T825 1948T857
1946T890 1926L1091 1707L1067 1681Z" />
<glyph unicode="&#xc1;" horiz-adv-x="1449" d="M58 0L940 1529H980L1170 0H960L831 1268L103 0H58ZM-90 0V39H350V0H-90ZM730 0V39H1311V0H730ZM364 470V509H1029V470H364ZM874 1681L850 1707L1051 1926Q1066 1941 1083 1946T1115 1948T1143 1936T1163 1915Q1172
1899 1171 1880T1161 1844T1136 1817L874 1681Z" />
<glyph unicode="&#xc2;" horiz-adv-x="1449" d="M58 0L940 1529H980L1170 0H960L831 1268L103 0H58ZM-90 0V39H350V0H-90ZM730 0V39H1311V0H730ZM364 470V509H1029V470H364ZM718 1696L696 1719L960 1939H1090L1267 1719L1242 1693L1021 1849L718 1696Z" />
<glyph unicode="&#xc3;" horiz-adv-x="1449" d="M58 0L940 1529H980L1170 0H960L831 1268L103 0H58ZM-90 0V39H350V0H-90ZM730 0V39H1311V0H730ZM364 470V509H1029V470H364ZM1180 1680Q1119 1680 1075 1704T993 1759T920 1814T841 1838Q784 1838 750 1806T688
1700H648Q668 1785 711 1841T808 1926T910 1954Q965 1954 1007 1930T1086 1875T1156 1820T1228 1796Q1285 1796 1320 1830T1381 1934H1421Q1401 1839 1363 1784T1277 1704T1180 1680Z" />
<glyph unicode="&#xc4;" horiz-adv-x="1449" d="M58 0L940 1529H980L1170 0H960L831 1268L103 0H58ZM-90 0V39H350V0H-90ZM730 0V39H1311V0H730ZM364 470V509H1029V470H364ZM1128 1690Q1088 1690 1060 1718T1031 1786Q1031 1826 1059 1854T1128 1883Q1168 1883
1195 1855T1223 1786Q1223 1746 1196 1718T1128 1690ZM808 1690Q768 1690 740 1718T711 1786Q711 1826 739 1854T808 1883Q848 1883 875 1855T903 1786Q903 1746 876 1718T808 1690Z" />
<glyph unicode="&#xc5;" horiz-adv-x="1449" d="M58 0L940 1529H980L1170 0H960L831 1268L103 0H58ZM-90 0V39H350V0H-90ZM730 0V39H1311V0H730ZM364 470V509H1029V470H364ZM984 1680Q908 1680 857 1731T805 1859Q805 1936 856 1988T984 2040Q1061 2040 1112 1988T1164
1859Q1164 1783 1113 1732T984 1680ZM979 1719Q1003 1719 1023 1733T1059 1770T1082 1821T1090 1879Q1090 1936 1064 1968T989 2000Q965 2000 945 1986T910 1949T887 1897T879 1839Q879 1782 905 1751T979 1719Z" />
<glyph unicode="&#xc6;" horiz-adv-x="2000" d="M79 0L1288 1500H1336L131 0H79ZM-50 0V39H391V0H-50ZM520 487V526H1109V487H520ZM800 0V39H1457Q1594 39 1687 89T1837 231T1925 450H1964L1859 0H800ZM971 0L1318 1500H1508L1160 0H971ZM1590 557Q1605 624 1594
668T1548 734T1456 756H1314V795H1456Q1513 795 1560 815T1640 877T1688 986H1728L1629 557H1590ZM2053 1090Q2078 1197 2063 1281T1985 1413T1805 1461H1357V1500H2188L2092 1090H2053Z" />
<glyph unicode="&#xc7;" horiz-adv-x="1342" d="M620 -20Q467 -20 352 44T173 228T109 510Q109 715 179 897T370 1220T648 1440T980 1520Q1098 1520 1190 1472T1330 1329T1359 1090H1338Q1351 1191 1328 1263T1256 1383T1140 1452T1000 1475Q893 1475 802 1428T637
1297T505 1107T409 878T350 632T330 391Q330 289 364 206T468 74T641 25Q775 25 884 75T1072 213T1198 410H1221Q1181 287 1094 190T885 36T620 -20ZM1093 0L1040 141Q1073 178 1108 219T1171 316L1198 410H1237L1127 0H1093ZM1338 1090L1353 1173Q1349 1223 1339
1266T1305 1355L1439 1500H1473L1377 1090H1338ZM439 -509V-471Q526 -471 585 -434T645 -333Q645 -270 587 -249T431 -228L640 12H688L548 -148Q625 -150 679 -165T762 -214T791 -300Q791 -355 750 -403T630 -480T439 -509Z" />
<glyph unicode="&#xc8;" horiz-adv-x="1164" d="M80 0L428 1500H618L270 0H80ZM-90 0V39H600Q737 39 826 89T968 231T1052 450H1091L987 0H-90ZM718 557Q732 624 717 668T662 734T566 756H424V795H566Q623 795 674 815T763 877T816 986H855L757 557H718ZM1180
1090Q1205 1197 1194 1281T1124 1413T948 1461H248V1500H1315L1219 1090H1180ZM967 1681L705 1817Q689 1827 680 1843T669 1879T678 1915Q685 1927 697 1936T725 1948T757 1946T790 1926L991 1707L967 1681Z" />
<glyph unicode="&#xc9;" horiz-adv-x="1164" d="M80 0L428 1500H618L270 0H80ZM-90 0V39H600Q737 39 826 89T968 231T1052 450H1091L987 0H-90ZM718 557Q732 624 717 668T662 734T566 756H424V795H566Q623 795 674 815T763 877T816 986H855L757 557H718ZM1180
1090Q1205 1197 1194 1281T1124 1413T948 1461H248V1500H1315L1219 1090H1180ZM774 1681L750 1707L951 1926Q966 1941 983 1946T1015 1948T1043 1936T1063 1915Q1072 1899 1071 1880T1061 1844T1036 1817L774 1681Z" />
<glyph unicode="&#xca;" horiz-adv-x="1164" d="M80 0L428 1500H618L270 0H80ZM-90 0V39H600Q737 39 826 89T968 231T1052 450H1091L987 0H-90ZM718 557Q732 624 717 668T662 734T566 756H424V795H566Q623 795 674 815T763 877T816 986H855L757 557H718ZM1180
1090Q1205 1197 1194 1281T1124 1413T948 1461H248V1500H1315L1219 1090H1180ZM618 1696L596 1719L860 1939H990L1167 1719L1142 1693L921 1849L618 1696Z" />
<glyph unicode="&#xcb;" horiz-adv-x="1164" d="M80 0L428 1500H618L270 0H80ZM-90 0V39H600Q737 39 826 89T968 231T1052 450H1091L987 0H-90ZM718 557Q732 624 717 668T662 734T566 756H424V795H566Q623 795 674 815T763 877T816 986H855L757 557H718ZM1180
1090Q1205 1197 1194 1281T1124 1413T948 1461H248V1500H1315L1219 1090H1180ZM1028 1690Q988 1690 960 1718T931 1786Q931 1826 959 1854T1028 1883Q1068 1883 1095 1855T1123 1786Q1123 1746 1096 1718T1028 1690ZM708 1690Q668 1690 640 1718T611 1786Q611 1826
639 1854T708 1883Q748 1883 775 1855T803 1786Q803 1746 776 1718T708 1690Z" />
<glyph unicode="&#xcc;" horiz-adv-x="699" d="M141 0L480 1500H670L330 0H141ZM-80 0V39H561V0H-80ZM250 1461V1500H891V1461H250ZM705 1681L443 1817Q427 1827 418 1843T407 1879T416 1915Q423 1927 435 1936T463 1948T495 1946T528 1926L729 1707L705 1681Z" />
<glyph unicode="&#xcd;" horiz-adv-x="699" d="M141 0L480 1500H670L330 0H141ZM-80 0V39H561V0H-80ZM250 1461V1500H891V1461H250ZM512 1681L488 1707L689 1926Q704 1941 721 1946T753 1948T781 1936T801 1915Q810 1899 809 1880T799 1844T774 1817L512 1681Z" />
<glyph unicode="&#xce;" horiz-adv-x="699" d="M141 0L480 1500H670L330 0H141ZM-80 0V39H561V0H-80ZM250 1461V1500H891V1461H250ZM356 1696L334 1719L598 1939H728L905 1719L880 1693L659 1849L356 1696Z" />
<glyph unicode="&#xcf;" horiz-adv-x="699" d="M141 0L480 1500H670L330 0H141ZM-80 0V39H561V0H-80ZM250 1461V1500H891V1461H250ZM766 1690Q726 1690 698 1718T669 1786Q669 1826 697 1854T766 1883Q806 1883 833 1855T861 1786Q861 1746 834 1718T766 1690ZM446
1690Q406 1690 378 1718T349 1786Q349 1826 377 1854T446 1883Q486 1883 513 1855T541 1786Q541 1746 514 1718T446 1690Z" />
<glyph unicode="&#xd0;" horiz-adv-x="1389" d="M145 711V749H734V711H145ZM-70 0V39H500Q607 39 698 85T863 212T995 395T1091 614T1150 847T1170 1070Q1170 1139 1153 1208T1098 1334T997 1426T840 1461H250V1500H840Q1003 1500 1127 1441T1321 1267T1391 990Q1391
785 1321 606T1128 290T843 77T500 0H-70ZM109 0L450 1500H641L300 0H109Z" />
<glyph unicode="&#xd1;" horiz-adv-x="1463" d="M1063 -20L467 1500H697L1152 314L1423 1500H1464L1118 -20H1063ZM-70 0V39H394V0H-70ZM119 0L448 1461H250V1500H497L160 0H119ZM1183 1461V1500H1654V1461H1183ZM1182 1680Q1121 1680 1077 1704T995 1759T922
1814T843 1838Q786 1838 752 1806T690 1700H650Q670 1785 713 1841T810 1926T912 1954Q967 1954 1009 1930T1088 1875T1158 1820T1230 1796Q1287 1796 1322 1830T1383 1934H1423Q1403 1839 1365 1784T1279 1704T1182 1680Z" />
<glyph unicode="&#xd2;" horiz-adv-x="1429" d="M600 -20Q370 -20 240 123T109 510Q109 674 154 824T278 1101T463 1322T690 1468T939 1520Q1082 1520 1193 1456T1367 1272T1430 990Q1430 785 1364 603T1183 280T917 60T600 -20ZM600 16Q697 16 780 64T931 196T1051
389T1138 620T1192 868T1210 1109Q1210 1171 1197 1236T1153 1358T1070 1449T939 1484Q847 1484 767 1436T618 1304T497 1111T406 880T350 632T330 391Q330 289 354 204T437 67T600 16ZM1069 1681L807 1817Q791 1827 782 1843T771 1879T780 1915Q787 1927 799 1936T827
1948T859 1946T892 1926L1093 1707L1069 1681Z" />
<glyph unicode="&#xd3;" horiz-adv-x="1429" d="M600 -20Q370 -20 240 123T109 510Q109 674 154 824T278 1101T463 1322T690 1468T939 1520Q1082 1520 1193 1456T1367 1272T1430 990Q1430 785 1364 603T1183 280T917 60T600 -20ZM600 16Q697 16 780 64T931 196T1051
389T1138 620T1192 868T1210 1109Q1210 1171 1197 1236T1153 1358T1070 1449T939 1484Q847 1484 767 1436T618 1304T497 1111T406 880T350 632T330 391Q330 289 354 204T437 67T600 16ZM876 1681L852 1707L1053 1926Q1068 1941 1085 1946T1117 1948T1145 1936T1165
1915Q1174 1899 1173 1880T1163 1844T1138 1817L876 1681Z" />
<glyph unicode="&#xd4;" horiz-adv-x="1429" d="M600 -20Q370 -20 240 123T109 510Q109 674 154 824T278 1101T463 1322T690 1468T939 1520Q1082 1520 1193 1456T1367 1272T1430 990Q1430 785 1364 603T1183 280T917 60T600 -20ZM600 16Q697 16 780 64T931 196T1051
389T1138 620T1192 868T1210 1109Q1210 1171 1197 1236T1153 1358T1070 1449T939 1484Q847 1484 767 1436T618 1304T497 1111T406 880T350 632T330 391Q330 289 354 204T437 67T600 16ZM720 1696L698 1719L962 1939H1092L1269 1719L1244 1693L1023 1849L720 1696Z"
/>
<glyph unicode="&#xd5;" horiz-adv-x="1429" d="M600 -20Q370 -20 240 123T109 510Q109 674 154 824T278 1101T463 1322T690 1468T939 1520Q1082 1520 1193 1456T1367 1272T1430 990Q1430 785 1364 603T1183 280T917 60T600 -20ZM600 16Q697 16 780 64T931 196T1051
389T1138 620T1192 868T1210 1109Q1210 1171 1197 1236T1153 1358T1070 1449T939 1484Q847 1484 767 1436T618 1304T497 1111T406 880T350 632T330 391Q330 289 354 204T437 67T600 16ZM1182 1680Q1121 1680 1077 1704T995 1759T922 1814T843 1838Q786 1838 752
1806T690 1700H650Q670 1785 713 1841T810 1926T912 1954Q967 1954 1009 1930T1088 1875T1158 1820T1230 1796Q1287 1796 1322 1830T1383 1934H1423Q1403 1839 1365 1784T1279 1704T1182 1680Z" />
<glyph unicode="&#xd6;" horiz-adv-x="1429" d="M600 -20Q370 -20 240 123T109 510Q109 674 154 824T278 1101T463 1322T690 1468T939 1520Q1082 1520 1193 1456T1367 1272T1430 990Q1430 785 1364 603T1183 280T917 60T600 -20ZM600 16Q697 16 780 64T931 196T1051
389T1138 620T1192 868T1210 1109Q1210 1171 1197 1236T1153 1358T1070 1449T939 1484Q847 1484 767 1436T618 1304T497 1111T406 880T350 632T330 391Q330 289 354 204T437 67T600 16ZM1130 1690Q1090 1690 1062 1718T1033 1786Q1033 1826 1061 1854T1130 1883Q1170
1883 1197 1855T1225 1786Q1225 1746 1198 1718T1130 1690ZM810 1690Q770 1690 742 1718T713 1786Q713 1826 741 1854T810 1883Q850 1883 877 1855T905 1786Q905 1746 878 1718T810 1690Z" />
<glyph unicode="&#xd7;" horiz-adv-x="963" d="M425 467L127 765L436 1074L734 776L425 467ZM435 467L127 776L425 1074L733 765L435 467Z" />
<glyph unicode="&#xd8;" horiz-adv-x="1429" d="M119 -200L1369 1661H1420L171 -200H119ZM600 -20Q370 -20 240 123T109 510Q109 674 154 824T278 1101T463 1322T690 1468T939 1520Q1082 1520 1193 1456T1367 1272T1430 990Q1430 785 1364 603T1183 280T917 60T600
-20ZM600 16Q697 16 780 64T931 196T1051 389T1138 620T1192 868T1210 1109Q1210 1171 1197 1236T1153 1358T1070 1449T939 1484Q847 1484 767 1436T618 1304T497 1111T406 880T350 632T330 391Q330 289 354 204T437 67T600 16Z" />
<glyph unicode="&#xd9;" horiz-adv-x="1384" d="M618 -29Q455 -29 348 25T200 187T198 460L438 1500H628L389 480Q366 386 366 303T393 154T482 52T643 15Q777 15 872 64T1030 213T1127 460L1366 1500H1407L1166 460Q1130 303 1062 194T885 28T618 -29ZM248 1461V1500H818V1461H248ZM1168
1461V1500H1575V1461H1168ZM1069 1681L807 1817Q791 1827 782 1843T771 1879T780 1915Q787 1927 799 1936T827 1948T859 1946T892 1926L1093 1707L1069 1681Z" />
<glyph unicode="&#xda;" horiz-adv-x="1384" d="M618 -29Q455 -29 348 25T200 187T198 460L438 1500H628L389 480Q366 386 366 303T393 154T482 52T643 15Q777 15 872 64T1030 213T1127 460L1366 1500H1407L1166 460Q1130 303 1062 194T885 28T618 -29ZM248 1461V1500H818V1461H248ZM1168
1461V1500H1575V1461H1168ZM876 1681L852 1707L1053 1926Q1068 1941 1085 1946T1117 1948T1145 1936T1165 1915Q1174 1899 1173 1880T1163 1844T1138 1817L876 1681Z" />
<glyph unicode="&#xdb;" horiz-adv-x="1384" d="M618 -29Q455 -29 348 25T200 187T198 460L438 1500H628L389 480Q366 386 366 303T393 154T482 52T643 15Q777 15 872 64T1030 213T1127 460L1366 1500H1407L1166 460Q1130 303 1062 194T885 28T618 -29ZM248 1461V1500H818V1461H248ZM1168
1461V1500H1575V1461H1168ZM720 1696L698 1719L962 1939H1092L1269 1719L1244 1693L1023 1849L720 1696Z" />
<glyph unicode="&#xdc;" horiz-adv-x="1384" d="M618 -29Q455 -29 348 25T200 187T198 460L438 1500H628L389 480Q366 386 366 303T393 154T482 52T643 15Q777 15 872 64T1030 213T1127 460L1366 1500H1407L1166 460Q1130 303 1062 194T885 28T618 -29ZM248 1461V1500H818V1461H248ZM1168
1461V1500H1575V1461H1168ZM1130 1690Q1090 1690 1062 1718T1033 1786Q1033 1826 1061 1854T1130 1883Q1170 1883 1197 1855T1225 1786Q1225 1746 1198 1718T1130 1690ZM810 1690Q770 1690 742 1718T713 1786Q713 1826 741 1854T810 1883Q850 1883 877 1855T905
1786Q905 1746 878 1718T810 1690Z" />
<glyph unicode="&#xdd;" horiz-adv-x="1449" d="M510 0L680 754L380 1500H600L864 778L1455 1496H1504L861 714L700 0H510ZM330 0V39H900V0H330ZM240 1461V1500H820V1461H240ZM1230 1461V1500H1650V1461H1230ZM906 1681L882 1707L1083 1926Q1098 1941 1115 1946T1147
1948T1175 1936T1195 1915Q1204 1899 1203 1880T1193 1844T1168 1817L906 1681Z" />
<glyph unicode="&#xde;" horiz-adv-x="1209" d="M130 0L477 1500H666L320 0H130ZM-50 0V39H500V0H-50ZM380 359V400H600Q702 400 781 443T916 558T1000 713T1029 880Q1029 924 1020 973T987 1064T917 1134T800 1161H510V1200H800Q931 1200 1032 1165T1192 1055T1250
859Q1250 709 1172 597T947 422T600 359H380ZM296 1461V1500H846V1461H296Z" />
<glyph unicode="&#xdf;" horiz-adv-x="1361" d="M130 0L350 982Q387 1147 466 1268T669 1454T966 1520Q1066 1520 1149 1500T1294 1439T1388 1339T1422 1202Q1422 1119 1380 1047T1255 919T1055 833T786 802V831Q883 831 962 864T1100 953T1189 1074T1221 1202Q1221
1274 1201 1338T1125 1443T966 1484Q858 1484 785 1441T663 1324T584 1157T529 962L311 0H130ZM-40 0V39H500V0H-40ZM893 -20Q804 -20 742 13T648 103T616 232Q616 288 635 325T684 382T750 402Q795 402 826 373T857 290Q857 258 841 233T797 194T741 180Q710 180
689 194T660 230Q656 177 680 129T753 51T872 21Q939 21 983 50T1052 130T1089 245T1100 380Q1100 451 1084 523T1032 656T936 754T786 791V819Q967 819 1081 764T1248 609T1302 380Q1302 275 1265 200T1166 76T1033 4T893 -20Z" />
<glyph unicode="&#xe0;" horiz-adv-x="1097" d="M318 -20Q188 -20 127 67T65 305Q65 420 108 532T224 737T381 884T552 940Q626 940 667 900T726 794T743 651Q743 582 729 506T687 354T621 212T536 92T434 10T318 -20ZM348 38Q404 38 457 75T556 176T637 319T691
483T711 648Q711 721 697 774T653 858T574 888Q522 888 471 845T374 731T293 574T238 398T217 230Q217 135 252 87T348 38ZM753 -20Q683 -20 650 18T617 116Q617 133 618 146T621 170L650 331L701 486L730 668L791 920H960L743 104Q739 88 739 72Q739 54 748 42T780
30Q824 30 862 60T937 153T1014 319L1052 306Q1009 191 966 119T871 14T753 -20ZM764 1101L502 1237Q486 1247 477 1263T466 1299T475 1335Q482 1347 494 1356T522 1368T554 1366T587 1346L788 1127L764 1101Z" />
<glyph unicode="&#xe1;" horiz-adv-x="1097" d="M318 -20Q188 -20 127 67T65 305Q65 420 108 532T224 737T381 884T552 940Q626 940 667 900T726 794T743 651Q743 582 729 506T687 354T621 212T536 92T434 10T318 -20ZM348 38Q404 38 457 75T556 176T637 319T691
483T711 648Q711 721 697 774T653 858T574 888Q522 888 471 845T374 731T293 574T238 398T217 230Q217 135 252 87T348 38ZM753 -20Q683 -20 650 18T617 116Q617 133 618 146T621 170L650 331L701 486L730 668L791 920H960L743 104Q739 88 739 72Q739 54 748 42T780
30Q824 30 862 60T937 153T1014 319L1052 306Q1009 191 966 119T871 14T753 -20ZM571 1101L547 1127L748 1346Q763 1361 780 1366T812 1368T840 1356T860 1335Q869 1319 868 1300T858 1264T833 1237L571 1101Z" />
<glyph unicode="&#xe2;" horiz-adv-x="1097" d="M318 -20Q188 -20 127 67T65 305Q65 420 108 532T224 737T381 884T552 940Q626 940 667 900T726 794T743 651Q743 582 729 506T687 354T621 212T536 92T434 10T318 -20ZM348 38Q404 38 457 75T556 176T637 319T691
483T711 648Q711 721 697 774T653 858T574 888Q522 888 471 845T374 731T293 574T238 398T217 230Q217 135 252 87T348 38ZM753 -20Q683 -20 650 18T617 116Q617 133 618 146T621 170L650 331L701 486L730 668L791 920H960L743 104Q739 88 739 72Q739 54 748 42T780
30Q824 30 862 60T937 153T1014 319L1052 306Q1009 191 966 119T871 14T753 -20ZM415 1116L393 1139L657 1359H787L964 1139L939 1113L718 1269L415 1116Z" />
<glyph unicode="&#xe3;" horiz-adv-x="1097" d="M318 -20Q188 -20 127 67T65 305Q65 420 108 532T224 737T381 884T552 940Q626 940 667 900T726 794T743 651Q743 582 729 506T687 354T621 212T536 92T434 10T318 -20ZM348 38Q404 38 457 75T556 176T637 319T691
483T711 648Q711 721 697 774T653 858T574 888Q522 888 471 845T374 731T293 574T238 398T217 230Q217 135 252 87T348 38ZM753 -20Q683 -20 650 18T617 116Q617 133 618 146T621 170L650 331L701 486L730 668L791 920H960L743 104Q739 88 739 72Q739 54 748 42T780
30Q824 30 862 60T937 153T1014 319L1052 306Q1009 191 966 119T871 14T753 -20ZM877 1100Q816 1100 772 1124T690 1179T617 1234T538 1258Q481 1258 447 1226T385 1120H345Q365 1205 408 1261T505 1346T607 1374Q662 1374 704 1350T783 1295T853 1240T925 1216Q982
1216 1017 1250T1078 1354H1118Q1098 1259 1060 1204T974 1124T877 1100Z" />
<glyph unicode="&#xe4;" horiz-adv-x="1097" d="M318 -20Q188 -20 127 67T65 305Q65 420 108 532T224 737T381 884T552 940Q626 940 667 900T726 794T743 651Q743 582 729 506T687 354T621 212T536 92T434 10T318 -20ZM348 38Q404 38 457 75T556 176T637 319T691
483T711 648Q711 721 697 774T653 858T574 888Q522 888 471 845T374 731T293 574T238 398T217 230Q217 135 252 87T348 38ZM753 -20Q683 -20 650 18T617 116Q617 133 618 146T621 170L650 331L701 486L730 668L791 920H960L743 104Q739 88 739 72Q739 54 748 42T780
30Q824 30 862 60T937 153T1014 319L1052 306Q1009 191 966 119T871 14T753 -20ZM825 1110Q785 1110 757 1138T728 1206Q728 1246 756 1274T825 1303Q865 1303 892 1275T920 1206Q920 1166 893 1138T825 1110ZM505 1110Q465 1110 437 1138T408 1206Q408 1246 436
1274T505 1303Q545 1303 572 1275T600 1206Q600 1166 573 1138T505 1110Z" />
<glyph unicode="&#xe5;" horiz-adv-x="1097" d="M318 -20Q188 -20 127 67T65 305Q65 420 108 532T224 737T381 884T552 940Q626 940 667 900T726 794T743 651Q743 582 729 506T687 354T621 212T536 92T434 10T318 -20ZM348 38Q404 38 457 75T556 176T637 319T691
483T711 648Q711 721 697 774T653 858T574 888Q522 888 471 845T374 731T293 574T238 398T217 230Q217 135 252 87T348 38ZM753 -20Q683 -20 650 18T617 116Q617 133 618 146T621 170L650 331L701 486L730 668L791 920H960L743 104Q739 88 739 72Q739 54 748 42T780
30Q824 30 862 60T937 153T1014 319L1052 306Q1009 191 966 119T871 14T753 -20ZM681 1100Q605 1100 554 1151T502 1279Q502 1356 553 1408T681 1460Q758 1460 809 1408T861 1279Q861 1203 810 1152T681 1100ZM676 1139Q700 1139 720 1153T756 1190T779 1241T787
1299Q787 1356 761 1388T686 1420Q662 1420 642 1406T607 1369T584 1317T576 1259Q576 1202 602 1171T676 1139Z" />
<glyph unicode="&#xe6;" horiz-adv-x="1525" d="M968 -20Q887 -20 820 15T711 125T670 320L710 311Q712 453 756 569T875 767T1042 894T1232 939Q1314 939 1378 921T1480 859T1518 744Q1518 669 1483 617T1387 530T1253 476T1100 447T949 436T820 433V468Q902
468 991 475T1157 508T1283 592T1331 749Q1331 814 1309 858T1232 903Q1165 903 1096 853T969 715T874 515T838 279Q838 205 856 149T911 61T1008 29Q1096 29 1166 65T1292 161T1387 286H1428Q1389 209 1324 139T1169 25T968 -20ZM340 -20Q261 -20 192 0T79 66T36
186Q36 280 96 356T271 477T548 522H695V482H548Q462 482 392 444T281 337T240 176Q240 98 273 59T359 19Q416 19 471 64T571 186T637 361L691 609Q702 657 705 707T699 800T658 869T566 896Q522 896 475 888T386 861T322 814Q360 826 388 818T432 787T448 736Q448
676 408 649T330 622Q285 622 256 650T227 732Q227 794 278 840T412 911T586 936Q716 936 773 888T839 765T832 609L746 361Q729 268 695 197T609 78T491 5T340 -20Z" />
<glyph unicode="&#xe7;" horiz-adv-x="885" d="M362 -20Q218 -20 142 69T65 300Q65 416 108 529T226 736T396 884T598 940Q680 940 738 909T828 833T860 750Q860 697 831 667T757 636Q720 636 689 660T658 736Q658 777 686 806T752 836Q781 836 805 829T843 804T858
750H820Q820 781 792 814T717 871T611 894Q543 894 483 849T373 729T289 564T234 382T214 213Q214 128 256 80T376 31Q456 31 522 63T643 151T738 280L774 259Q735 184 675 121T537 19T362 -20ZM193 -509V-471Q280 -471 339 -434T399 -333Q399 -270 341 -249T185
-228L394 12H442L302 -148Q379 -150 433 -165T516 -214T545 -300Q545 -355 504 -403T384 -480T193 -509Z" />
<glyph unicode="&#xe8;" horiz-adv-x="923" d="M356 -20Q260 -20 194 20T94 133T60 300Q60 415 102 528T220 735T398 884T621 940Q729 940 788 887T848 754Q848 672 792 608T643 498T437 426T210 392V426Q296 433 370 449T505 493T609 562T676 657T700 782Q700
829 679 864T607 900Q550 900 499 868T403 781T322 655T261 508T222 354T208 210Q208 110 254 71T371 31Q450 31 517 62T638 150T733 279L768 258Q729 182 670 119T532 18T356 -20ZM678 1101L416 1237Q400 1247 391 1263T380 1299T389 1335Q396 1347 408 1356T436
1368T468 1366T501 1346L702 1127L678 1101Z" />
<glyph unicode="&#xe9;" horiz-adv-x="923" d="M356 -20Q260 -20 194 20T94 133T60 300Q60 415 102 528T220 735T398 884T621 940Q729 940 788 887T848 754Q848 672 792 608T643 498T437 426T210 392V426Q296 433 370 449T505 493T609 562T676 657T700 782Q700
829 679 864T607 900Q550 900 499 868T403 781T322 655T261 508T222 354T208 210Q208 110 254 71T371 31Q450 31 517 62T638 150T733 279L768 258Q729 182 670 119T532 18T356 -20ZM485 1101L461 1127L662 1346Q677 1361 694 1366T726 1368T754 1356T774 1335Q783
1319 782 1300T772 1264T747 1237L485 1101Z" />
<glyph unicode="&#xea;" horiz-adv-x="923" d="M356 -20Q260 -20 194 20T94 133T60 300Q60 415 102 528T220 735T398 884T621 940Q729 940 788 887T848 754Q848 672 792 608T643 498T437 426T210 392V426Q296 433 370 449T505 493T609 562T676 657T700 782Q700
829 679 864T607 900Q550 900 499 868T403 781T322 655T261 508T222 354T208 210Q208 110 254 71T371 31Q450 31 517 62T638 150T733 279L768 258Q729 182 670 119T532 18T356 -20ZM329 1116L307 1139L571 1359H701L878 1139L853 1113L632 1269L329 1116Z" />
<glyph unicode="&#xeb;" horiz-adv-x="923" d="M356 -20Q260 -20 194 20T94 133T60 300Q60 415 102 528T220 735T398 884T621 940Q729 940 788 887T848 754Q848 672 792 608T643 498T437 426T210 392V426Q296 433 370 449T505 493T609 562T676 657T700 782Q700
829 679 864T607 900Q550 900 499 868T403 781T322 655T261 508T222 354T208 210Q208 110 254 71T371 31Q450 31 517 62T638 150T733 279L768 258Q729 182 670 119T532 18T356 -20ZM739 1110Q699 1110 671 1138T642 1206Q642 1246 670 1274T739 1303Q779 1303 806
1275T834 1206Q834 1166 807 1138T739 1110ZM419 1110Q379 1110 351 1138T322 1206Q322 1246 350 1274T419 1303Q459 1303 486 1275T514 1206Q514 1166 487 1138T419 1110Z" />
<glyph unicode="&#xec;" horiz-adv-x="678" d="M252 -20Q178 -20 142 15T105 126Q105 134 105 147T109 170L269 881H136V920H459L270 109Q268 100 267 91T266 73Q266 57 274 46T302 35Q352 35 401 77T493 189T565 338L603 326Q546 176 461 78T252 -20ZM496 1101L234
1237Q218 1247 209 1263T198 1299T207 1335Q214 1347 226 1356T254 1368T286 1366T319 1346L520 1127L496 1101Z" />
<glyph unicode="&#xed;" horiz-adv-x="678" d="M252 -20Q178 -20 142 15T105 126Q105 134 105 147T109 170L269 881H136V920H459L270 109Q268 100 267 91T266 73Q266 57 274 46T302 35Q352 35 401 77T493 189T565 338L603 326Q546 176 461 78T252 -20ZM303 1101L279
1127L480 1346Q495 1361 512 1366T544 1368T572 1356T592 1335Q601 1319 600 1300T590 1264T565 1237L303 1101Z" />
<glyph unicode="&#xee;" horiz-adv-x="678" d="M252 -20Q178 -20 142 15T105 126Q105 134 105 147T109 170L269 881H136V920H459L270 109Q268 100 267 91T266 73Q266 57 274 46T302 35Q352 35 401 77T493 189T565 338L603 326Q546 176 461 78T252 -20ZM146 1116L124
1139L388 1359H518L695 1139L670 1113L449 1269L146 1116Z" />
<glyph unicode="&#xef;" horiz-adv-x="678" d="M252 -20Q178 -20 142 15T105 126Q105 134 105 147T109 170L269 881H136V920H459L270 109Q268 100 267 91T266 73Q266 57 274 46T302 35Q352 35 401 77T493 189T565 338L603 326Q546 176 461 78T252 -20ZM556 1110Q516
1110 488 1138T459 1206Q459 1246 487 1274T556 1303Q596 1303 623 1275T651 1206Q651 1166 624 1138T556 1110ZM236 1110Q196 1110 168 1138T139 1206Q139 1246 167 1274T236 1303Q276 1303 303 1275T331 1206Q331 1166 304 1138T236 1110Z" />
<glyph unicode="&#xf0;" horiz-adv-x="1119" d="M473 -20Q291 -20 186 62T80 340Q80 498 135 617T278 817T466 939T658 980Q774 980 829 930T900 791T917 585L889 660Q889 730 871 791T811 889T702 927Q637 927 575 896T460 807T366 671T302 499T279 300Q279 226
295 162T352 59T469 19Q533 19 594 63T708 179T802 336T866 506T889 660L901 691Q901 803 897 916T873 1131T807 1312T680 1438T471 1484V1520Q638 1520 759 1463T959 1305T1075 1075T1113 800Q1113 643 1062 496T922 233T717 48T473 -20ZM420 1221V1260H1260V1221H420Z"
/>
<glyph unicode="&#xf1;" horiz-adv-x="1142" d="M756 -20Q678 -20 639 10T600 104Q600 125 604 145T613 179L751 616Q775 693 783 753T775 847T705 881Q658 881 597 829T474 689T360 491T276 266H248Q270 349 307 441T395 622T503 782T625 896T751 939Q838 939
883 898T937 788T922 639L760 105Q757 96 756 87T754 69Q754 54 762 43T792 31Q862 31 915 98T1030 319L1067 306Q1024 191 981 119T884 14T756 -20ZM42 0L273 881H140V920H447L207 0H42ZM872 1100Q811 1100 767 1124T685 1179T612 1234T533 1258Q476 1258 442
1226T380 1120H340Q360 1205 403 1261T500 1346T602 1374Q657 1374 699 1350T778 1295T848 1240T920 1216Q977 1216 1012 1250T1073 1354H1113Q1093 1259 1055 1204T969 1124T872 1100Z" />
<glyph unicode="&#xf2;" horiz-adv-x="973" d="M362 -20Q211 -20 138 72T65 299Q65 430 108 546T227 750T399 889T601 940Q753 940 825 848T898 620Q898 489 855 373T736 169T565 30T362 -20ZM352 19Q407 19 458 51T554 139T637 267T702 421T745 584T760 740Q760
814 724 857T611 900Q556 900 505 868T409 780T326 652T261 498T218 335T203 179Q203 105 239 62T352 19ZM726 1101L464 1237Q448 1247 439 1263T428 1299T437 1335Q444 1347 456 1356T484 1368T516 1366T549 1346L750 1127L726 1101Z" />
<glyph unicode="&#xf3;" horiz-adv-x="973" d="M362 -20Q211 -20 138 72T65 299Q65 430 108 546T227 750T399 889T601 940Q753 940 825 848T898 620Q898 489 855 373T736 169T565 30T362 -20ZM352 19Q407 19 458 51T554 139T637 267T702 421T745 584T760 740Q760
814 724 857T611 900Q556 900 505 868T409 780T326 652T261 498T218 335T203 179Q203 105 239 62T352 19ZM533 1101L509 1127L710 1346Q725 1361 742 1366T774 1368T802 1356T822 1335Q831 1319 830 1300T820 1264T795 1237L533 1101Z" />
<glyph unicode="&#xf4;" horiz-adv-x="973" d="M362 -20Q211 -20 138 72T65 299Q65 430 108 546T227 750T399 889T601 940Q753 940 825 848T898 620Q898 489 855 373T736 169T565 30T362 -20ZM352 19Q407 19 458 51T554 139T637 267T702 421T745 584T760 740Q760
814 724 857T611 900Q556 900 505 868T409 780T326 652T261 498T218 335T203 179Q203 105 239 62T352 19ZM377 1116L355 1139L619 1359H749L926 1139L901 1113L680 1269L377 1116Z" />
<glyph unicode="&#xf5;" horiz-adv-x="973" d="M362 -20Q211 -20 138 72T65 299Q65 430 108 546T227 750T399 889T601 940Q753 940 825 848T898 620Q898 489 855 373T736 169T565 30T362 -20ZM352 19Q407 19 458 51T554 139T637 267T702 421T745 584T760 740Q760
814 724 857T611 900Q556 900 505 868T409 780T326 652T261 498T218 335T203 179Q203 105 239 62T352 19ZM840 1100Q779 1100 735 1124T653 1179T580 1234T501 1258Q444 1258 410 1226T348 1120H308Q328 1205 371 1261T468 1346T570 1374Q625 1374 667 1350T746
1295T816 1240T888 1216Q945 1216 980 1250T1041 1354H1081Q1061 1259 1023 1204T937 1124T840 1100Z" />
<glyph unicode="&#xf6;" horiz-adv-x="973" d="M362 -20Q211 -20 138 72T65 299Q65 430 108 546T227 750T399 889T601 940Q753 940 825 848T898 620Q898 489 855 373T736 169T565 30T362 -20ZM352 19Q407 19 458 51T554 139T637 267T702 421T745 584T760 740Q760
814 724 857T611 900Q556 900 505 868T409 780T326 652T261 498T218 335T203 179Q203 105 239 62T352 19ZM787 1110Q747 1110 719 1138T690 1206Q690 1246 718 1274T787 1303Q827 1303 854 1275T882 1206Q882 1166 855 1138T787 1110ZM467 1110Q427 1110 399 1138T370
1206Q370 1246 398 1274T467 1303Q507 1303 534 1275T562 1206Q562 1166 535 1138T467 1110Z" />
<glyph unicode="&#xf7;" horiz-adv-x="1119" d="M561 990Q512 990 476 1025T439 1110Q439 1160 475 1195T561 1230Q611 1230 645 1195T680 1110Q680 1061 646 1026T561 990ZM561 280Q512 280 476 315T439 400Q439 450 475 485T561 520Q611 520 645 485T680 400Q680
351 646 316T561 280ZM100 751V789H1020V751H100Z" />
<glyph unicode="&#xf8;" horiz-adv-x="973" d="M-125 -246L1124 1158H1175L-74 -246H-125ZM362 -20Q211 -20 138 72T65 299Q65 430 108 546T227 750T399 889T601 940Q753 940 825 848T898 620Q898 489 855 373T736 169T565 30T362 -20ZM352 19Q407 19 458 51T554
139T637 267T702 421T745 584T760 740Q760 814 724 857T611 900Q556 900 505 868T409 780T326 652T261 498T218 335T203 179Q203 105 239 62T352 19Z" />
<glyph unicode="&#xf9;" horiz-adv-x="1141" d="M253 -20Q157 -20 113 21T65 132T81 282L234 881H102V920H413L251 305Q230 227 222 167T229 72T299 38Q346 38 410 90T539 231T659 429T743 654H773Q753 571 715 479T624 298T511 137T385 23T253 -20ZM765 -20Q687
-20 649 20T611 105Q611 117 613 135T620 170L810 920H979L759 105Q757 96 756 87T755 69Q755 31 792 31Q838 31 877 60T952 153T1030 319L1067 306Q1024 191 981 119T885 14T765 -20ZM634 1101L372 1237Q356 1247 347 1263T336 1299T345 1335Q352 1347 364 1356T392
1368T424 1366T457 1346L658 1127L634 1101Z" />
<glyph unicode="&#xfa;" horiz-adv-x="1141" d="M253 -20Q157 -20 113 21T65 132T81 282L234 881H102V920H413L251 305Q230 227 222 167T229 72T299 38Q346 38 410 90T539 231T659 429T743 654H773Q753 571 715 479T624 298T511 137T385 23T253 -20ZM765 -20Q687
-20 649 20T611 105Q611 117 613 135T620 170L810 920H979L759 105Q757 96 756 87T755 69Q755 31 792 31Q838 31 877 60T952 153T1030 319L1067 306Q1024 191 981 119T885 14T765 -20ZM441 1101L417 1127L618 1346Q633 1361 650 1366T682 1368T710 1356T730 1335Q739
1319 738 1300T728 1264T703 1237L441 1101Z" />
<glyph unicode="&#xfb;" horiz-adv-x="1141" d="M253 -20Q157 -20 113 21T65 132T81 282L234 881H102V920H413L251 305Q230 227 222 167T229 72T299 38Q346 38 410 90T539 231T659 429T743 654H773Q753 571 715 479T624 298T511 137T385 23T253 -20ZM765 -20Q687
-20 649 20T611 105Q611 117 613 135T620 170L810 920H979L759 105Q757 96 756 87T755 69Q755 31 792 31Q838 31 877 60T952 153T1030 319L1067 306Q1024 191 981 119T885 14T765 -20ZM285 1116L263 1139L527 1359H657L834 1139L809 1113L588 1269L285 1116Z" />
<glyph unicode="&#xfc;" horiz-adv-x="1141" d="M253 -20Q157 -20 113 21T65 132T81 282L234 881H102V920H413L251 305Q230 227 222 167T229 72T299 38Q346 38 410 90T539 231T659 429T743 654H773Q753 571 715 479T624 298T511 137T385 23T253 -20ZM765 -20Q687
-20 649 20T611 105Q611 117 613 135T620 170L810 920H979L759 105Q757 96 756 87T755 69Q755 31 792 31Q838 31 877 60T952 153T1030 319L1067 306Q1024 191 981 119T885 14T765 -20ZM695 1110Q655 1110 627 1138T598 1206Q598 1246 626 1274T695 1303Q735 1303
762 1275T790 1206Q790 1166 763 1138T695 1110ZM375 1110Q335 1110 307 1138T278 1206Q278 1246 306 1274T375 1303Q415 1303 442 1275T470 1206Q470 1166 443 1138T375 1110Z" />
<glyph unicode="&#xfd;" horiz-adv-x="1005" d="M87 -520Q20 -520 -29 -493T-104 -416T-131 -302Q-131 -269 -116 -239T-74 -189T-8 -170Q17 -170 43 -181T86 -215T104 -277Q104 -326 73 -356T3 -387Q-23 -387 -54 -378T-107 -351T-129 -302H-91Q-91 -359 -70
-399T-10 -460T86 -481Q159 -481 245 -427T422 -282T600 -77T765 156T902 390T995 592T1029 731Q1029 768 1018 807T980 872T912 899V937Q949 937 977 921T1022 880T1038 826Q1038 793 1021 767T976 727T914 712Q854 712 821 746T788 826Q788 872 822 905T912 939Q973
939 1007 905T1056 822T1070 732Q1070 676 1036 582T940 371T800 131T629 -109T444 -318T258 -465T87 -520ZM629 -103Q593 -40 558 43T491 219T430 405T377 582T333 731T299 833Q293 849 281 861T237 874Q197 874 155 830T73 677L35 693Q68 783 105 837T190 915T300
939Q385 939 425 891T486 771Q507 704 531 612T585 421T654 227T741 60Q726 38 714 19T689 -20T662 -59T629 -103ZM508 1101L484 1127L685 1346Q700 1361 717 1366T749 1368T777 1356T797 1335Q806 1319 805 1300T795 1264T770 1237L508 1101Z" />
<glyph unicode="&#xfe;" horiz-adv-x="1145" d="M-20 -500L428 1461H294V1500H618L410 588L365 438L351 317L160 -500H-20ZM-145 -500V-461H305V-500H-145ZM506 46Q579 46 645 99T762 240T842 430T871 632Q871 745 830 812T711 880Q644 880 588 841T489 738T415
596T368 441T352 297Q352 224 371 168T425 79T506 46ZM554 -20Q433 -20 377 69T321 297Q321 362 338 446T389 616T476 776T598 894T758 939Q828 939 900 908T1022 804T1072 608Q1072 472 1026 358T903 158T735 27T554 -20Z" />
<glyph unicode="&#xff;" horiz-adv-x="1005" d="M87 -520Q20 -520 -29 -493T-104 -416T-131 -302Q-131 -269 -116 -239T-74 -189T-8 -170Q17 -170 43 -181T86 -215T104 -277Q104 -326 73 -356T3 -387Q-23 -387 -54 -378T-107 -351T-129 -302H-91Q-91 -359 -70
-399T-10 -460T86 -481Q159 -481 245 -427T422 -282T600 -77T765 156T902 390T995 592T1029 731Q1029 768 1018 807T980 872T912 899V937Q949 937 977 921T1022 880T1038 826Q1038 793 1021 767T976 727T914 712Q854 712 821 746T788 826Q788 872 822 905T912 939Q973
939 1007 905T1056 822T1070 732Q1070 676 1036 582T940 371T800 131T629 -109T444 -318T258 -465T87 -520ZM629 -103Q593 -40 558 43T491 219T430 405T377 582T333 731T299 833Q293 849 281 861T237 874Q197 874 155 830T73 677L35 693Q68 783 105 837T190 915T300
939Q385 939 425 891T486 771Q507 704 531 612T585 421T654 227T741 60Q726 38 714 19T689 -20T662 -59T629 -103ZM762 1110Q722 1110 694 1138T665 1206Q665 1246 693 1274T762 1303Q802 1303 829 1275T857 1206Q857 1166 830 1138T762 1110ZM442 1110Q402 1110
374 1138T345 1206Q345 1246 373 1274T442 1303Q482 1303 509 1275T537 1206Q537 1166 510 1138T442 1110Z" />
<glyph unicode="&#x2013;" horiz-adv-x="1081" d="M166 531V569H1007V531H166Z" />
<glyph unicode="&#x2014;" horiz-adv-x="1569" d="M167 531V569H1496V531H167Z" />
<glyph unicode="&#x2018;" horiz-adv-x="429" d="M407 1032Q368 1032 338 1048T290 1099T273 1186Q273 1254 304 1320T386 1440T503 1527T635 1560V1520Q576 1520 517 1489T410 1406T336 1291T315 1164H277Q277 1195 297 1218T350 1255T416 1268Q481 1268 511
1235T541 1156Q541 1123 524 1095T476 1050T407 1032Z" />
<glyph unicode="&#x2019;" horiz-adv-x="429" d="M226 1012V1052Q285 1052 344 1083T451 1166T525 1281T546 1408H584Q584 1377 564 1354T511 1317T445 1304Q381 1304 351 1337T320 1416Q320 1449 337 1477T385 1523T454 1540Q493 1540 523 1524T571 1473T588
1386Q588 1319 557 1253T475 1132T359 1045T226 1012Z" />
<glyph unicode="&#x201a;" horiz-adv-x="677" d="M-74 -312V-272Q-15 -272 44 -241T151 -158T225 -43T246 84H284Q284 53 264 30T211 -7T145 -20Q81 -20 51 13T20 92Q20 125 37 153T85 199T154 216Q193 216 223 200T271 149T288 62Q288 -5 257 -71T175 -192T59
-279T-74 -312Z" />
<glyph unicode="&#x201c;" horiz-adv-x="819" d="M794 1032Q755 1032 725 1048T678 1099T660 1186Q660 1254 691 1320T773 1440T890 1527T1022 1560V1520Q963 1520 904 1489T797 1406T723 1291T702 1164H664Q664 1195 684 1218T737 1255T803 1268Q868 1268 898
1235T928 1156Q928 1123 911 1095T863 1050T794 1032ZM405 1032Q366 1032 336 1048T288 1099T271 1186Q271 1254 302 1320T384 1440T501 1527T633 1560V1520Q574 1520 515 1489T408 1406T334 1291T313 1164H275Q275 1195 295 1218T348 1255T414 1268Q479 1268 509
1235T539 1156Q539 1123 522 1095T474 1050T405 1032Z" />
<glyph unicode="&#x201d;" horiz-adv-x="819" d="M627 1012V1052Q686 1052 745 1083T852 1166T926 1281T947 1408H985Q985 1377 965 1354T912 1317T846 1304Q782 1304 752 1337T721 1416Q721 1449 738 1477T786 1523T855 1540Q894 1540 924 1524T972 1473T989
1386Q989 1319 958 1253T876 1132T760 1045T627 1012ZM238 1012V1052Q297 1052 356 1083T463 1166T537 1281T558 1408H596Q596 1377 576 1354T523 1317T457 1304Q393 1304 363 1337T332 1416Q332 1449 349 1477T397 1523T466 1540Q505 1540 535 1524T583 1473T600
1386Q600 1319 569 1253T487 1132T371 1045T238 1012Z" />
<glyph unicode="&#x201e;" horiz-adv-x="819" d="M315 -312V-272Q374 -272 433 -241T540 -158T614 -43T635 84H673Q673 53 653 30T600 -7T534 -20Q470 -20 440 13T409 92Q409 125 426 153T474 199T543 216Q582 216 612 200T660 149T677 62Q677 -5 646 -71T564
-192T448 -279T315 -312ZM-74 -312V-272Q-15 -272 44 -241T151 -158T225 -43T246 84H284Q284 53 264 30T211 -7T145 -20Q81 -20 51 13T20 92Q20 125 37 153T85 199T154 216Q193 216 223 200T271 149T288 62Q288 -5 257 -71T175 -192T59 -279T-74 -312Z" />
<glyph unicode="&#x2022;" horiz-adv-x="399" d="M141 610Q108 610 81 626T37 669T20 730Q20 763 36 790T80 834T141 851Q174 851 201 835T244 791T260 730Q260 697 244 670T201 626T141 610Z" />
<glyph unicode="&#x2039;" horiz-adv-x="830" d="M710 290L150 750V800L930 1260L951 1240L402 775L730 310L710 290Z" />
<glyph unicode="&#x203a;" horiz-adv-x="822" d="M101 290L80 310L629 775L301 1240L321 1260L881 800V750L101 290Z" />
</font>
</defs>
</svg>
